<svg width="40" height="40" viewBox="0 0 40 40" fill="none" xmlns="http://www.w3.org/2000/svg">
<path d="M0 0H24C32.8366 0 40 7.16344 40 16V40H16C7.16344 40 0 32.8366 0 24V0Z" fill="white" fill-opacity="0.6"/>
<path d="M13.1674 13.3192C11.6109 15.0781 11.6109 17.9298 13.1674 19.6887L19.3786 26.7072C19.724 27.0976 20.276 27.0976 20.6214 26.7072L26.8326 19.6887C28.3891 17.9298 28.3891 15.0781 26.8326 13.3192C25.276 11.5603 22.7523 11.5603 21.1958 13.3192L20 14.6704L18.8042 13.3192C17.2477 11.5603 14.724 11.5603 13.1674 13.3192Z" stroke="#0C0C0C" stroke-width="2" stroke-linecap="round"/>
</svg>
