<svg width="24" height="24" viewBox="0 0 24 24" fill="none" xmlns="http://www.w3.org/2000/svg">
<path d="M5.53754 18.5401C3.84454 19.2701 3.01804 20.2621 2.68254 20.9551C2.54954 21.2291 2.77304 21.5001 3.07754 21.5001H13.6935C14.0645 21.5001 14.2995 21.1121 14.083 20.8101C13.208 19.5911 11.891 18.8216 11.1945 18.5341C11.138 18.5107 11.0772 18.4991 11.016 18.5001H5.73104C5.66452 18.5004 5.59874 18.514 5.53754 18.5401Z" stroke="#0C0C0C" stroke-width="2" stroke-linecap="round" stroke-linejoin="round"/>
<path d="M7.36609 9.42802L9.86609 5.09802L14.1961 7.59802L11.6961 11.928L7.36609 9.42802Z" stroke="#0C0C0C" stroke-width="2"/>
<path d="M13.696 8.46396L14.196 7.59796C13.9663 7.46536 13.6934 7.42942 13.4372 7.49806C13.181 7.5667 12.9626 7.73429 12.83 7.96396L13.696 8.46396ZM12.196 11.062L11.33 10.562C11.1974 10.7916 11.1615 11.0646 11.2301 11.3208C11.2988 11.5769 11.4663 11.7954 11.696 11.928L12.196 11.062ZM13.196 9.32996L19.691 13.08L20.691 11.348L14.196 7.59796L13.196 9.32996ZM19.191 13.946L12.696 10.196L11.696 11.928L18.191 15.678L19.191 13.946ZM13.062 11.562L14.562 8.96396L12.83 7.96396L11.33 10.562L13.062 11.562ZM19.8745 13.763C19.8417 13.8199 19.798 13.8698 19.7458 13.9098C19.6937 13.9498 19.6342 13.9792 19.5707 13.9962C19.5072 14.0131 19.441 14.0175 19.3759 14.0089C19.3107 14.0002 19.2479 13.9789 19.191 13.946L18.191 15.678C18.7652 16.0095 19.4476 16.0993 20.088 15.9277C20.7284 15.7561 21.2745 15.3371 21.606 14.763L19.8745 13.763ZM19.691 13.08C19.7479 13.1128 19.7978 13.1564 19.8378 13.2085C19.8778 13.2606 19.9072 13.32 19.9243 13.3834C19.9413 13.4469 19.9457 13.513 19.9371 13.5782C19.9286 13.6433 19.9073 13.7061 19.8745 13.763L21.606 14.763C21.9375 14.1888 22.0279 13.5064 21.8563 12.866C21.6847 12.2255 21.2652 11.6795 20.691 11.348L19.691 13.08Z" fill="#0C0C0C"/>
<path d="M15.2631 4.75L11.799 2.75C11.0816 2.33579 10.1642 2.5816 9.75 3.29904C9.33579 4.01648 9.5816 4.93386 10.299 5.34808L13.7631 7.34808C14.4806 7.76229 15.398 7.51648 15.8122 6.79904C16.2264 6.0816 15.9806 5.16421 15.2631 4.75Z" stroke="#0C0C0C" stroke-width="2" stroke-linejoin="round"/>
<path d="M11.2631 11.678L7.79904 9.67798C7.0816 9.26376 6.16421 9.50958 5.75 10.227C5.33579 10.9445 5.5816 11.8618 6.29904 12.2761L9.76314 14.2761C10.4806 14.6903 11.398 14.4445 11.8122 13.727C12.2264 13.0096 11.9806 12.0922 11.2631 11.678Z" stroke="#0C0C0C" stroke-width="2" stroke-linejoin="round"/>
</svg>
