<svg width="24" height="24" viewBox="0 0 24 24" fill="none" xmlns="http://www.w3.org/2000/svg">
<path d="M9.9565 9.90251C10.121 9.43488 10.4458 9.04057 10.8732 8.7894C11.3007 8.53823 11.8033 8.44641 12.292 8.53022C12.7806 8.61402 13.2239 8.86804 13.5432 9.24727C13.8625 9.6265 14.0372 10.1065 14.0365 10.6022C14.0365 12.0016 12.6928 12.0016 12 13.0511M11.993 15.5H12M21 11.9999C21 16.9705 16.9706 20.9999 12 20.9999C7.02944 20.9999 3 16.9705 3 11.9999C3 7.02938 7.02944 2.99995 12 2.99995C16.9706 2.99995 21 7.02938 21 11.9999Z" stroke="#7B7B7B" stroke-width="2" stroke-linecap="round" stroke-linejoin="round"/>
</svg>
