<svg width="48" height="48" viewBox="0 0 48 48" fill="none" xmlns="http://www.w3.org/2000/svg">
<rect x="1" y="1" width="46" height="46" rx="23" fill="white"/>
<rect x="1" y="1" width="46" height="46" rx="23" stroke="#0C0C0C" stroke-width="2"/>
<path d="M22.238 16.512C22.238 16.0447 22.4236 15.5965 22.754 15.2661C23.0845 14.9356 23.5327 14.75 24 14.75C24.4673 14.75 24.9155 14.9356 25.2459 15.2661C25.5763 15.5965 25.762 16.0447 25.762 16.512V20.9L32.495 24.435C32.6563 24.5198 32.7915 24.647 32.8858 24.803C32.98 24.959 33.0299 25.1377 33.03 25.32V25.751C33.0301 25.8393 33.0106 25.9266 32.9731 26.0065C32.9355 26.0865 32.8808 26.1572 32.8128 26.2135C32.7448 26.2699 32.6652 26.3105 32.5796 26.3326C32.4941 26.3546 32.4047 26.3575 32.318 26.341L25.762 25.101V29.208C25.7618 29.3168 25.7912 29.4236 25.847 29.5169C25.9029 29.6103 25.9831 29.6867 26.079 29.738L27.941 30.734C28.1802 30.8621 28.3803 31.0527 28.5197 31.2855C28.6592 31.5183 28.7329 31.7846 28.733 32.056V32.503C28.733 32.5929 28.7129 32.6816 28.674 32.7626C28.6352 32.8436 28.5786 32.9149 28.5086 32.9711C28.4385 33.0274 28.3567 33.0672 28.2692 33.0876C28.1817 33.108 28.0907 33.1085 28.003 33.089L24 32.204L19.997 33.089C19.9092 33.1085 19.8183 33.108 19.7308 33.0876C19.6433 33.0672 19.5614 33.0274 19.4914 32.9711C19.4213 32.9149 19.3648 32.8436 19.3259 32.7626C19.2871 32.6816 19.2669 32.5929 19.267 32.503V32.056C19.267 31.7846 19.3407 31.5183 19.4802 31.2855C19.6197 31.0527 19.8197 30.8621 20.059 30.734L21.921 29.737C22.0167 29.6858 22.0968 29.6095 22.1526 29.5163C22.2085 29.4232 22.238 29.3166 22.238 29.208V25.102L15.682 26.34C15.5952 26.3565 15.5058 26.3536 15.4203 26.3316C15.3348 26.3095 15.2552 26.2689 15.1871 26.2125C15.1191 26.1562 15.0644 26.0855 15.0269 26.0055C14.9893 25.9256 14.9699 25.8383 14.97 25.75V25.32C14.9698 25.1376 15.0196 24.9586 15.1139 24.8024C15.2082 24.6462 15.3435 24.5188 15.505 24.434L22.238 20.9V16.512Z" stroke="#0C0C0C" stroke-width="1.5" stroke-linecap="round" stroke-linejoin="round"/>
</svg>
