<svg width="176" height="32" viewBox="0 0 176 32" fill="none" xmlns="http://www.w3.org/2000/svg">
<path d="M20.844 15.781H17.525V27.606H12.613V15.781H10.277V11.602H12.613V8.904C12.613 6.965 13.534 3.944 17.573 3.944L21.215 3.957V8.014H18.569C18.141 8.014 17.529 8.228 17.529 9.149V11.607H21.272L20.844 15.781ZM22.147 0H9.396C4.212 0 0 4.217 0 9.397V22.148C0 27.332 4.212 31.549 9.396 31.549H22.147C27.332 31.549 31.549 27.332 31.549 22.148V9.397C31.549 4.217 27.332 0 22.147 0Z" fill="white"/>
<path d="M65.0129 14.3091V14.2671C65.0039 14.2811 64.9919 14.2961 64.9829 14.3091H65.0129Z" fill="white"/>
<path d="M74.092 25.3502H69.668V18.4412C69.668 16.7062 69.029 15.5212 67.427 15.5212C66.205 15.5212 65.478 16.3192 65.158 17.0912C65.042 17.3672 65.011 17.7502 65.011 18.1382V25.3502H60.587C60.587 25.3502 60.647 13.6482 60.587 12.4372H65.011V14.2672C65.599 13.3892 66.647 12.1342 68.998 12.1342C71.909 12.1342 74.091 13.9802 74.091 17.9462V25.3512L74.092 25.3502ZM55.931 10.6752H55.902C54.418 10.6752 53.457 9.68319 53.457 8.44319C53.457 7.17619 54.447 6.21219 55.961 6.21219C57.475 6.21219 58.405 7.17619 58.434 8.44319C58.434 9.68319 57.474 10.6752 55.931 10.6752ZM53.72 25.3502V12.4372H58.142V25.3502H53.72ZM70.148 0.471191H57.396C52.212 0.471191 48 4.56419 48 9.59119V21.9672C48 26.9992 52.212 31.0922 57.396 31.0922H70.148C75.333 31.0922 79.55 26.9992 79.55 21.9672V9.59119C79.55 4.56419 75.333 0.471191 70.148 0.471191Z" fill="white"/>
<path d="M117.906 11.3089C117.096 11.3089 116.44 10.6719 116.44 9.88589C116.44 9.09989 117.097 8.46189 117.906 8.46189C118.716 8.46189 119.372 9.09889 119.372 9.88589C119.372 10.6729 118.716 11.3089 117.906 11.3089ZM111.775 21.7209C108.4 21.7209 105.655 19.0569 105.655 15.7809C105.655 12.5049 108.401 9.84089 111.775 9.84089C115.149 9.84089 117.895 12.5049 117.895 15.7809C117.895 19.0569 115.149 21.7209 111.775 21.7209ZM116.556 6.60889H106.992C104.414 6.60889 102.323 8.63789 102.323 11.1399V20.4219C102.323 22.9249 104.413 24.9529 106.992 24.9529H116.556C119.134 24.9529 121.225 22.9249 121.225 20.4219V11.1399C121.225 8.63689 119.134 6.60889 116.556 6.60889Z" fill="white"/>
<path d="M111.775 12.1519C109.71 12.1519 108.036 13.7769 108.036 15.7819C108.036 17.7869 109.71 19.4109 111.775 19.4109C113.84 19.4109 115.515 17.7859 115.515 15.7819C115.515 13.7779 113.841 12.1519 111.775 12.1519Z" fill="white"/>
<path d="M123.606 20.4222C123.606 24.1952 120.444 27.2642 116.557 27.2642H106.993C103.106 27.2642 99.944 24.1952 99.944 20.4222V11.1392C99.944 7.36719 103.106 4.29819 106.993 4.29819H116.557C120.444 4.29819 123.606 7.36719 123.606 11.1392V20.4222ZM118.148 0.471191H105.396C100.212 0.471191 96 4.56419 96 9.59119V21.9672C96 26.9992 100.212 31.0932 105.396 31.0932H118.148C123.332 31.0932 127.55 27.0002 127.55 21.9672V9.59119C127.55 4.56419 123.333 0.471191 118.148 0.471191Z" fill="white"/>
<path d="M163.373 15.993L156.903 12.851C156.73 12.767 156.526 12.887 156.526 13.073V19.173C156.526 19.356 156.725 19.476 156.898 19.397L163.368 16.44C163.563 16.351 163.566 16.086 163.374 15.993H163.373Z" fill="white"/>
<path d="M171.605 19.431C171.605 22.032 169.405 24.141 166.691 24.141H152.858C150.144 24.141 147.944 22.032 147.944 19.431V12.803C147.944 10.202 150.144 8.09305 152.858 8.09305H166.691C169.406 8.09305 171.605 10.202 171.605 12.803V19.431ZM166.148 0.998047H153.396C148.212 0.998047 144 5.04005 144 10.004V22.225C144 27.194 148.212 31.236 153.396 31.236H166.148C171.333 31.236 175.55 27.194 175.55 22.225V10.004C175.55 5.04005 171.333 0.998047 166.148 0.998047Z" fill="white"/>
</svg>
