<svg width="44" height="44" viewBox="0 0 44 44" fill="none" xmlns="http://www.w3.org/2000/svg">
<path d="M24.4988 6.7155H18.2618V19.3013C17.5102 19.6619 16.6906 19.9742 15.8033 20.2382C15.3349 20.373 14.8601 20.4843 14.3806 20.5718V7.27467C14.3806 7.27467 14.4906 5.36617 13.4291 4.72083V4.4825H23.3915C23.8388 5.027 24.2403 5.76033 24.4988 6.7155ZM26.2551 23.9323C30.7743 21.7653 32.9505 17.952 32.9908 13.5813C33.0183 10.6077 31.9697 8.78167 30.7963 7.81C30.7268 7.753 30.6553 7.69858 30.5818 7.64683C30.3416 6.61248 29.9643 5.61487 29.4598 4.6805C29.6774 4.71228 29.8754 4.74711 30.0538 4.785C33.3318 5.48167 35.9663 7.41767 37.213 11.154C38.2286 14.201 37.7355 17.9813 35.5556 21.0118C35.0405 21.7287 33.6673 23.2595 32.0906 24.3888C31.8046 24.5942 31.6323 24.7078 31.3316 24.8967C33.3062 28.061 34.2796 29.8778 35.5392 33.33C36.6392 36.344 37.4733 40.3517 37.587 41.294C37.862 43.5362 38.5312 43.714 38.6852 43.7598V44H30.811V43.7617C31.053 43.6333 33.1815 42.7607 33.1925 39.4222C33.2035 36.971 32.6058 34.2742 31.5168 31.2455C30.8541 29.4659 30.0719 27.7331 29.1756 26.059L29.15 26.0205C28.6289 26.2475 28.0952 26.444 27.5513 26.609C27.1425 25.663 26.7263 24.8068 26.2551 23.9342V23.9323ZM18.2618 23.6683V25.7143C18.8577 25.6887 20.7185 25.5383 22.3941 25.212C22.7737 26.07 23.1036 26.884 23.331 27.5165L23.3622 27.6045C22.613 27.7239 21.8611 27.8253 21.1071 27.9088C20.1607 28.0113 19.212 28.0913 18.2618 28.149V41.3673C18.2618 41.6588 18.3296 43.2153 19.3435 43.7617V44H13.299V43.7617C14.2853 43.2428 14.3806 41.6588 14.3806 41.3692V24.3742C15.6873 24.2125 16.9819 23.9768 18.2618 23.6683ZM19.0997 2.29167L18.2527 2.27883H10.3803V21.6663C11.1613 21.6315 14.0708 21.3877 15.9756 20.823C22.3281 18.9438 25.3623 14.5035 25.41 9.28583C25.4375 6.25167 24.3686 4.38717 23.1696 3.39717C22.4235 2.77933 21.4353 2.48783 20.7166 2.3815C20.3133 2.30083 19.415 2.28983 19.0997 2.28983V2.29167ZM6.42032 37.6878V2.849C6.42032 2.849 6.53398 0.902 5.44865 0.243833V0H18.9163C20.0401 0.00183333 21.5105 0.1155 22.4125 0.311667C25.7565 1.02117 28.446 2.99567 29.7183 6.809C30.7541 9.91833 30.2518 13.7757 28.028 16.8685C27.5018 17.6018 26.103 19.1602 24.4897 20.3152C24.2381 20.4962 23.98 20.668 23.716 20.8303C25.7326 24.0607 26.7245 25.9142 28.0115 29.4378C29.1335 32.5123 29.9842 36.6043 30.1015 37.5632C30.3783 39.8512 31.064 40.0822 31.2198 40.1298V40.3718H23.1861L23.1843 40.128C23.4337 39.996 25.6043 39.0592 25.6153 35.651C25.6282 33.1522 25.0176 30.3985 23.9066 27.3093C23.2318 25.4922 22.4324 23.7237 21.5141 22.0165L21.4885 21.9762C20.4215 22.462 18.1665 23.1202 16.7035 23.397C15.6566 23.595 14.5951 23.7582 13.2843 23.9048C12.1421 24.0332 11.0348 24.1083 10.3803 24.1505V37.6878C10.3803 37.983 10.45 39.5725 11.4858 40.1298V40.3718H5.31665V40.1298C6.32315 39.5982 6.42032 37.9848 6.42032 37.6878Z" fill="#0F0F0F"/>
</svg>
