<svg width="44" height="44" viewBox="0 0 44 44" fill="none" xmlns="http://www.w3.org/2000/svg">
<path d="M24.1871 26.9078C23.7967 26.6967 23.3578 26.5912 22.9141 26.6018C22.4703 26.6124 22.037 26.7388 21.6571 26.9683C21.4882 27.0952 21.3538 27.2623 21.266 27.4544C21.1783 27.6466 21.14 27.8576 21.1548 28.0683H19.8605V26.1103H17.6806V29.337L21.5618 29.3737V28.9337C21.8347 29.183 22.1766 29.3441 22.5426 29.3957C22.6778 29.4175 22.8145 29.4286 22.9515 29.4287C23.3765 29.4219 23.7971 29.3412 24.1945 29.1903V29.3737H26.1213V26.73H24.1871V26.9078ZM23.7343 28.5853C23.664 28.5924 23.593 28.5854 23.5254 28.5646C23.4579 28.5439 23.3951 28.51 23.3408 28.4648C23.2866 28.4195 23.2418 28.3639 23.2093 28.3012C23.1768 28.2385 23.157 28.1699 23.1513 28.0995C23.1457 28.0475 23.1514 27.9949 23.1678 27.9453C23.1843 27.8956 23.2111 27.8501 23.2466 27.8117C23.3103 27.7476 23.3864 27.6973 23.4703 27.6639C23.5542 27.6305 23.644 27.6146 23.7343 27.6173C23.8046 27.6103 23.8756 27.6173 23.9432 27.638C24.0107 27.6587 24.0735 27.6927 24.1278 27.7379C24.182 27.7831 24.2267 27.8387 24.2593 27.9014C24.2918 27.9642 24.3116 28.0327 24.3173 28.1032C24.2986 28.2402 24.229 28.3651 24.1223 28.4531C24.0156 28.5411 23.8797 28.5857 23.7416 28.578L23.7343 28.5853ZM33.4821 27.0068C32.9612 26.7292 32.3783 26.5885 31.7881 26.598C31.3313 26.5953 30.8781 26.678 30.4516 26.8418C30.1409 26.9524 29.862 27.1374 29.6395 27.3808V26.598H29.6046C29.1093 26.5742 28.6195 26.7105 28.2076 26.9867V26.7282H26.279V29.3718H28.2076V28.435C28.347 28.1948 28.71 28.1013 29.3773 28.1325C29.4158 28.3115 29.4922 28.4802 29.6013 28.6272C29.7104 28.7742 29.8497 28.8962 30.0098 28.985C30.4402 29.24 30.9271 29.3842 31.427 29.4048H31.757C32.2908 29.4165 32.8208 29.3113 33.3098 29.0968C33.6047 28.9767 33.8569 28.7711 34.034 28.5065L34.0615 28.4552H33.341C33.0564 28.605 32.7356 28.6722 32.4149 28.6492C32.0941 28.6262 31.7862 28.5139 31.526 28.325H34.1348V28.3012C34.1746 28.2043 34.1976 28.1014 34.2026 27.9968C34.1814 27.7826 34.1035 27.578 33.9768 27.404C33.8502 27.2299 33.6794 27.0928 33.4821 27.0068ZM31.4985 27.6412C31.5205 27.4065 31.768 27.3148 31.9806 27.3093C32.2391 27.3093 32.5306 27.4138 32.5618 27.6393L31.4985 27.6412ZM39.0756 27.0655C38.6775 26.7852 38.2088 26.6222 37.7227 26.595C37.2366 26.5678 36.7526 26.6774 36.3256 26.9115V26.6988H34.3933V29.3737H36.289V27.9217C36.3738 27.8495 36.472 27.7948 36.5781 27.7609C36.6841 27.7269 36.7958 27.7142 36.9068 27.7237C36.9915 27.7236 37.0754 27.7408 37.1532 27.7742C37.2311 27.8076 37.3013 27.8565 37.3596 27.918V29.3737H39.2865V27.775C39.3065 27.6486 39.2981 27.5194 39.262 27.3967C39.2258 27.274 39.1628 27.1608 39.0775 27.0655M13.5795 27.4193C13.4558 27.5943 13.391 27.8042 13.3946 28.0185C13.3983 28.2327 13.4701 28.4403 13.5996 28.611C13.9314 29.015 14.4048 29.2773 14.9233 29.3443C15.1678 29.3921 15.4166 29.4148 15.6658 29.4122C16.2639 29.4031 16.8582 29.3149 17.4331 29.15H17.4588V28.2663L17.4166 28.2755C16.1718 28.5413 15.4 28.3635 15.246 28.1508C15.2321 28.1319 15.2246 28.1092 15.2246 28.0857C15.2246 28.0623 15.2321 28.0395 15.246 28.0207C15.3761 27.8043 16.115 27.654 17.4295 27.8227H17.468V26.8437H17.4423C15.2533 26.29 14.014 26.7813 13.5795 27.4193ZM9.9678 27.0673V26.1103H7.0803L4.44946 29.3407H6.81996L8.04096 28.0573V29.3407H9.94763L11.1668 28.0573V29.3407H13.2238V26.1103H10.8955L9.9678 27.0673ZM11.3245 19.7395L12.1898 19.514C13.9 19.0742 15.6317 18.723 17.3781 18.4617C18.5619 18.2868 19.7565 18.1949 20.9531 18.1867C24.9333 18.1958 26.9298 19.5323 26.2423 22.22C25.958 23.1685 25.5248 24.0658 24.959 24.8783C24.7885 25.1313 24.5923 25.3898 24.409 25.6575L24.4401 25.6373L24.2568 25.8793L24.3925 25.795L24.3301 25.8793C27.2508 24.1213 30.0223 22.1267 32.6168 19.9155C42.9018 10.8827 29.6413 10.4848 13.5886 18.5277C12.8186 18.9139 12.0407 19.3203 11.2548 19.7468L11.3978 19.7102L11.3245 19.7395Z" fill="#0F0F0F"/>
</svg>
