<svg width="44" height="44" viewBox="0 0 44 44" fill="none" xmlns="http://www.w3.org/2000/svg">
<path d="M43.8258 17.9373H29.1866V15.1177C29.1869 15.0797 29.1796 15.0421 29.1652 15.007C29.1509 14.9718 29.1297 14.9399 29.103 14.913C29.0762 14.886 29.0444 14.8647 29.0094 14.8501C28.9743 14.8355 28.9367 14.828 28.8988 14.828H15.103C15.065 14.828 15.0274 14.8355 14.9924 14.8501C14.9573 14.8647 14.9255 14.886 14.8988 14.913C14.872 14.9399 14.8509 14.9718 14.8365 15.007C14.8222 15.0421 14.8149 15.0797 14.8151 15.1177V17.9373H4.32296C4.16346 17.9373 3.96913 18.0657 3.88846 18.227L0.0366271 25.773C-0.0458729 25.9343 0.0164604 26.0608 0.177794 26.0608H14.8133V28.8842C14.8133 29.0418 14.9416 29.172 15.1011 29.172H28.897C29.0565 29.172 29.1848 29.0437 29.1848 28.8842V26.0608H39.677C39.8365 26.0608 40.0308 25.9325 40.1133 25.773L43.9633 18.227C44.0458 18.0675 43.9835 17.9373 43.824 17.9373M39.2516 19.7633L36.971 24.2312H27.379V27.3625H16.6283V24.2312H4.75746L7.03996 19.7633H16.632V16.6338H27.3826V19.7633H39.2516Z" fill="#0F0F0F"/>
</svg>
