<svg width="44" height="44" viewBox="0 0 44 44" fill="none" xmlns="http://www.w3.org/2000/svg">
<path d="M26.4771 18.6853C25.9042 18.7199 25.3441 18.87 24.8308 19.1267C24.3174 19.3835 23.8613 19.7414 23.4899 20.1791C23.1186 20.6167 22.8397 21.125 22.6699 21.6733C22.5002 22.2216 22.4432 22.7986 22.5024 23.3695C22.4721 23.9348 22.5606 24.5002 22.7622 25.0292C22.9638 25.5583 23.274 26.0392 23.6728 26.4409C24.0717 26.8427 24.5503 27.1565 25.0778 27.3619C25.6053 27.5674 26.1701 27.66 26.7356 27.6338C29.2234 27.665 30.8716 26.0498 30.8716 24.8545H28.1216C28.0039 25.0927 27.8205 25.2922 27.5931 25.4296C27.3658 25.567 27.1038 25.6365 26.8382 25.63C25.8684 25.63 25.3184 25.08 25.3184 23.7563H30.9064C30.9009 19.5892 28.8347 18.6853 26.4771 18.6853ZM25.4082 22.077C25.4082 21.2043 25.7639 20.493 26.7649 20.493C26.9703 20.4866 27.1747 20.524 27.3645 20.6027C27.5543 20.6814 27.7252 20.7996 27.8659 20.9494C28.0065 21.0992 28.1136 21.2773 28.1802 21.4717C28.2467 21.6661 28.2711 21.8724 28.2517 22.077H25.4082ZM17.5432 18.6853C16.9702 18.7196 16.4099 18.8696 15.8964 19.1262C15.3828 19.3828 14.9265 19.7408 14.5549 20.1784C14.1834 20.6161 13.9043 21.1245 13.7344 21.6729C13.5646 22.2213 13.5076 22.7984 13.5667 23.3695C13.5364 23.935 13.6249 24.5005 13.8266 25.0297C14.0283 25.5588 14.3387 26.0398 14.7378 26.4416C15.1368 26.8435 15.6156 27.1571 16.1434 27.3625C16.6711 27.5678 17.2361 27.6603 17.8017 27.6338C20.2896 27.665 21.9377 26.0498 21.9377 24.8545H19.1877C19.07 25.0927 18.8867 25.2922 18.6593 25.4296C18.4319 25.567 18.17 25.6365 17.9044 25.63C16.9346 25.63 16.3864 25.08 16.3864 23.7563H21.9744C21.9689 19.5892 19.9027 18.6853 17.5432 18.6853ZM16.4762 22.077C16.4762 21.2043 16.8319 20.493 17.8329 20.493C18.0381 20.4869 18.2423 20.5245 18.4319 20.6033C18.6215 20.6821 18.7922 20.8003 18.9326 20.9501C19.073 21.0999 19.18 21.2778 19.2465 21.4721C19.3129 21.6664 19.3372 21.8726 19.3179 22.077H16.4762ZM10.0302 23.3365C10.0423 23.5674 10.0035 23.7981 9.91662 24.0124C9.82975 24.2266 9.69694 24.4192 9.52753 24.5766C9.35812 24.7339 9.15625 24.8522 8.93616 24.923C8.71607 24.9938 8.48313 25.0155 8.25375 24.9865C8.03051 24.9967 7.80761 24.9602 7.59926 24.8794C7.39091 24.7986 7.20169 24.6753 7.04367 24.5172C6.88566 24.3592 6.76232 24.17 6.68152 23.9617C6.60072 23.7533 6.56425 23.5304 6.57441 23.3072V21.8863H3.66675V23.3402C3.66675 24.8252 4.11958 27.4762 8.28675 27.4762C12.4539 27.4762 13.0351 24.6327 13.0351 23.276V15.3927H10.0302V23.3365ZM36.7786 18.7825C36.3999 18.7593 36.0206 18.8186 35.6671 18.9563C35.3135 19.094 34.994 19.3068 34.7307 19.58C34.5364 19.8147 34.2926 20.0622 34.2926 19.4608V19.008H31.5132V30.1528H34.3237V27.0838C34.3237 26.8565 34.5492 26.8913 34.7124 27.0838C35.2977 27.5749 36.0515 27.8183 36.8134 27.7622C39.0427 27.7622 40.3334 25.8243 40.3334 23.1788C40.3334 19.7505 38.1701 18.7825 36.7786 18.7825ZM35.9426 25.7913C34.5841 25.7913 34.2284 24.9187 34.2596 23.2723C34.2907 21.626 34.9379 20.9385 35.8106 20.9385C37.2332 20.9385 37.4917 22.0385 37.4917 23.1678C37.4917 24.2972 37.2974 25.7913 35.9426 25.7913Z" fill="#0F0F0F"/>
</svg>
