<svg width="44" height="44" viewBox="0 0 44 44" fill="none" xmlns="http://www.w3.org/2000/svg">
<path d="M19.5324 23.9855C20.2463 24.502 21.1222 24.7441 22 24.6675C23.221 24.64 24.3559 24.2477 24.3559 23.1129C24.3239 22.8547 24.2174 22.6114 24.0494 22.4128C23.8814 22.2142 23.6592 22.0688 23.4099 21.9945C23.2797 21.9505 23.309 21.8112 23.4099 21.7764C23.5948 21.6655 23.7515 21.5133 23.8676 21.3317C23.9837 21.15 24.0561 20.9439 24.079 20.7295C24.079 20.1795 23.4979 19.349 21.8259 19.349C20.9944 19.2927 20.1716 19.5461 19.5159 20.0604C19.5838 20.1097 19.6408 20.1727 19.6831 20.2453C19.7254 20.3179 19.7521 20.3985 19.7615 20.482V23.4905C19.7408 23.676 19.6603 23.8497 19.5324 23.9855ZM21.8882 19.9834C22.0583 19.9678 22.2291 20.0041 22.3782 20.0874C22.5274 20.1707 22.6478 20.2971 22.7238 20.4501C22.7998 20.6031 22.8277 20.7755 22.804 20.9446C22.7802 21.1138 22.7059 21.2718 22.5907 21.398C22.4755 21.5241 22.3249 21.6125 22.1586 21.6515C21.9923 21.6905 21.8181 21.6783 21.6588 21.6165C21.4996 21.5547 21.3627 21.4462 21.2663 21.3053C21.1698 21.1643 21.1182 20.9975 21.1182 20.8267C21.1097 20.6131 21.1858 20.4047 21.3299 20.2468C21.4741 20.089 21.6747 19.9943 21.8882 19.9834ZM21.989 22.1834C22.1714 22.1779 22.3512 22.227 22.5056 22.3243C22.6599 22.4216 22.7816 22.5628 22.8553 22.7298C22.9289 22.8967 22.951 23.0818 22.9188 23.2614C22.8866 23.441 22.8015 23.6069 22.6745 23.7378C22.5475 23.8688 22.3842 23.9589 22.2057 23.9965C22.0272 24.0342 21.8415 24.0177 21.6724 23.9492C21.5033 23.8807 21.3585 23.7633 21.2565 23.612C21.1545 23.4608 21.0999 23.2825 21.0999 23.1C21.0974 22.9813 21.1186 22.8632 21.162 22.7527C21.2055 22.6422 21.2705 22.5414 21.3532 22.4562C21.4359 22.3709 21.5346 22.3029 21.6438 22.2561C21.7529 22.2093 21.8703 22.1845 21.989 22.1834ZM25.1955 24.6034C25.6105 24.3228 25.9531 23.9479 26.1953 23.5094C26.4374 23.0709 26.5723 22.5813 26.5889 22.0807C26.5697 21.5835 26.4331 21.0979 26.1903 20.6636C25.9475 20.2293 25.6053 19.8586 25.1919 19.5819C24.214 18.9142 23.0575 18.5571 21.8735 18.5571C20.6895 18.5571 19.533 18.9142 18.5552 19.5819C18.1417 19.8586 17.7996 20.2293 17.5568 20.6636C17.314 21.0979 17.1774 21.5835 17.1582 22.0807C17.1745 22.5812 17.3091 23.0707 17.551 23.5091C17.7928 23.9476 18.1351 24.3226 18.5497 24.6034C19.5275 25.2754 20.6861 25.6352 21.8726 25.6352C23.0591 25.6352 24.2177 25.2754 25.1955 24.6034ZM17.3727 22.0807C17.3912 21.6165 17.5197 21.1634 17.7476 20.7586C17.9755 20.3538 18.2963 20.0089 18.6835 19.7524C19.6249 19.1139 20.7361 18.7727 21.8735 18.7727C23.0109 18.7727 24.1222 19.1139 25.0635 19.7524C25.4508 20.0089 25.7715 20.3538 25.9994 20.7586C26.2273 21.1634 26.3558 21.6165 26.3744 22.0807C26.3567 22.5477 26.2292 23.0039 26.002 23.4123C25.7749 23.8207 25.4546 24.1697 25.0672 24.431C24.127 25.0758 23.0136 25.4209 21.8735 25.4209C20.7334 25.4209 19.6201 25.0758 18.6799 24.431C18.2924 24.1697 17.9721 23.8207 17.745 23.4123C17.5179 23.0039 17.3903 22.5477 17.3727 22.0807ZM26.8089 22.8067C26.7828 22.9032 26.7529 22.9986 26.719 23.0927C27.0014 23.6427 27.2397 23.5052 27.368 23.4594C27.4964 23.4135 27.6724 23.2412 27.5422 23.0817C27.412 22.9222 27.1939 22.704 26.9757 22.4272L26.8089 22.8067ZM27.368 21.6444C27.4835 21.5857 27.5715 21.4702 27.4542 21.2667C27.3369 21.0632 27.0344 20.7442 26.8877 20.8597C26.7282 21.0192 26.9757 21.3547 27.0197 21.4702C27.0538 21.5306 27.1052 21.5795 27.1672 21.6105C27.2293 21.6415 27.2992 21.6533 27.368 21.6444ZM28.1087 21.3969C28.3855 21.2135 28.0372 20.9624 27.8905 20.801C27.7604 20.7295 27.4414 20.4344 27.2947 20.5975C27.148 20.7607 27.5422 21.1659 27.6449 21.2814C27.7475 21.3969 27.8905 21.5582 28.1087 21.3969ZM25.0269 17.7632C24.8435 18.2435 25.245 18.4965 25.4925 18.6945C25.8058 18.8763 26.066 19.1369 26.2471 19.4506C26.4282 19.7642 26.5239 20.1199 26.5247 20.482C26.7282 20.394 27.005 20.3519 26.8162 19.932C26.6989 19.6992 26.1324 18.942 26.2662 18.5937C26.4 18.2454 26.8345 17.9685 27.808 17.9245C28.7815 17.8805 30.1474 17.9245 30.613 17.853C31.0787 17.7815 32.9395 17.303 33.3172 17.2572C33.4767 17.2279 33.4767 17.1545 33.374 17.1399C32.9395 17.1399 31.4857 17.2279 30.9614 17.2279C30.437 17.2279 29.2179 17.1985 28.7815 17.1692C28.0892 17.1255 27.3948 17.1255 26.7025 17.1692C26.2332 17.2114 25.2175 17.2847 25.0269 17.7632ZM25.344 17.6092C25.4555 17.526 25.5746 17.4536 25.6997 17.3929C25.7286 17.3785 25.7621 17.3763 25.7927 17.3866C25.8233 17.3969 25.8485 17.4189 25.8629 17.4479C25.8772 17.4768 25.8795 17.5102 25.8691 17.5408C25.8588 17.5714 25.8368 17.5967 25.8079 17.611C25.6969 17.6615 25.5913 17.7229 25.4925 17.7944C25.421 17.8494 25.3697 17.9007 25.366 17.9429C25.3594 18.0088 25.3708 18.0754 25.399 18.1354C25.4586 18.2314 25.5395 18.3123 25.6355 18.3719C25.6485 18.381 25.6596 18.3926 25.6681 18.4061C25.6766 18.4195 25.6824 18.4345 25.6851 18.4501C25.6878 18.4658 25.6875 18.4818 25.684 18.4973C25.6805 18.5128 25.674 18.5275 25.6649 18.5405C25.6557 18.5535 25.6441 18.5646 25.6307 18.5731C25.6172 18.5816 25.6023 18.5874 25.5866 18.5901C25.5709 18.5928 25.5549 18.5925 25.5394 18.589C25.5239 18.5855 25.5092 18.579 25.4962 18.5699C25.3665 18.49 25.2588 18.3791 25.1827 18.2472C25.1304 18.1476 25.1099 18.0343 25.124 17.9227C25.138 17.8584 25.1647 17.7976 25.2025 17.7438C25.2402 17.69 25.2884 17.6442 25.344 17.6092ZM28.6477 20.6709C28.501 20.5975 28.0647 20.2345 27.9345 20.394C27.775 20.5774 28.1179 20.845 28.2829 20.977C28.5744 21.2374 29.1115 20.977 28.6477 20.6709ZM29.4764 18.0547C28.8173 18.0338 28.1575 18.0485 27.5 18.0987C27.3072 18.1038 27.1178 18.1505 26.9447 18.2356C26.7716 18.3207 26.6189 18.4422 26.4972 18.5919C26.3377 18.8687 26.6145 19.3252 26.7447 19.5085C26.9481 19.7504 27.172 19.9743 27.4139 20.1777C27.544 20.2785 27.7915 20.119 27.5734 19.8715C27.8502 20.031 28.1985 20.0017 28.039 19.6094C28.2847 19.8129 28.6917 19.8275 28.446 19.3197C28.6055 19.4499 29.0712 19.4352 28.7797 19.0429C29.0272 19.1162 29.3022 18.9695 29.1134 18.7239C29.4342 18.766 29.6084 18.5405 29.2967 18.3572C29.5919 18.447 29.6799 18.084 29.4764 18.0547ZM27.6302 22.022C27.5164 22.0695 27.3994 22.1087 27.28 22.1394C27.4739 22.6415 27.8396 23.0586 28.3122 23.3164C28.6184 23.4612 28.7485 23.133 28.5744 22.9497C28.2975 22.7205 27.8905 22.2842 27.6302 22.022ZM33.4015 22.1247C32.1811 21.7526 30.9863 21.3012 29.8247 20.7735C29.6913 20.9163 29.5336 21.0342 29.359 21.1219C30.179 21.7126 31.1006 22.1476 32.0779 22.4052C32.5325 22.5283 33.0082 22.5527 33.473 22.4767C33.7792 22.3667 33.6472 22.1834 33.4015 22.1247ZM29.9255 22.8214C29.766 22.7059 28.7925 22.066 28.3709 21.7764C28.2829 21.8185 28.0647 21.8919 27.9785 21.9212C28.1804 22.2497 28.449 22.5321 28.7671 22.75C29.0852 22.9679 29.4455 23.1165 29.8247 23.1862C30.25 23.2137 30.1437 22.968 29.9255 22.8214ZM36.817 20.6122C36.2487 20.5407 32.417 19.9302 31.3794 19.6534C30.9577 19.5525 30.7689 19.5947 30.712 19.712C30.6552 19.8294 30.668 20.031 30.9577 20.1337C31.2474 20.2364 34.65 21.0192 35.2752 21.0632C35.8131 21.1049 36.3529 21.0104 36.8445 20.7882C37.0334 20.6415 36.817 20.6122 36.817 20.6122ZM38.0527 19.58C37.6439 19.58 32.7892 19.2134 31.7717 18.9989C31.4234 18.9695 31.1905 18.9549 31.1612 19.1015C31.1319 19.2482 31.1465 19.3197 31.438 19.4059C33.3269 19.7981 35.2405 20.0603 37.1654 20.1905C37.7759 20.1777 38.4872 19.5947 38.0527 19.58ZM39.215 18.491C38.6192 18.5057 35.6529 18.5204 35.3045 18.5057C34.9562 18.491 32.2814 18.3444 31.9605 18.3224C31.6397 18.3004 31.35 18.381 31.35 18.4837C31.35 18.5864 31.4234 18.667 31.7864 18.744C33.8515 19.0321 35.9345 19.173 38.0197 19.1657C38.4912 19.182 38.9509 19.0158 39.303 18.7019C39.4754 18.4764 39.2865 18.491 39.215 18.491ZM39.8255 17.1967C38.7934 17.1967 36.4247 17.27 35.9755 17.27C34.5526 17.369 33.1358 17.5434 31.7314 17.7925C31.5132 17.8659 31.4545 18.0987 31.7314 18.1134C32.0082 18.128 35.3797 18.1702 35.8729 18.1702C36.366 18.1702 39.7394 18.2289 40.205 17.633C40.5167 17.1967 40.1152 17.2114 39.8255 17.1967ZM30.5654 20.2639C30.2885 20.1759 30.1877 20.2639 30.1437 20.3665C30.1241 20.394 30.1112 20.4257 30.1058 20.459C30.1004 20.4923 30.1028 20.5264 30.1127 20.5587C30.1227 20.5909 30.1399 20.6205 30.163 20.645C30.1862 20.6696 30.2147 20.6884 30.2464 20.7002C31.5205 21.2467 32.851 21.6513 34.2137 21.9065C34.5663 21.8948 34.9126 21.8106 35.2312 21.659C35.3632 21.5875 35.3045 21.5875 35.2752 21.4757C34.8682 21.384 31.5334 20.6269 30.5654 20.2639ZM31.7295 22.561C30.8292 22.2273 29.9584 21.8188 29.1262 21.34C28.9913 21.4318 28.8504 21.5145 28.7045 21.5875C29.1167 21.9195 29.5489 22.2256 29.9989 22.5042C30.4736 22.822 31.0436 22.9658 31.6122 22.9112C31.8597 22.88 31.9752 22.6472 31.7295 22.561ZM30.6955 19.2757C30.7395 19.1309 30.5947 18.9989 30.4205 18.9842C29.9695 18.898 29.5479 18.8009 29.5039 18.9274C29.4599 19.0539 29.4324 19.0869 29.854 19.305C30.2757 19.5232 30.6387 19.4499 30.6955 19.2757ZM30.9009 17.952C30.58 17.952 30.0135 17.9667 29.9989 18.1354C29.9842 18.304 30.4645 18.381 30.8422 18.3957C31.3354 18.4177 31.3354 17.952 30.9009 17.952ZM31.0604 18.7C31.0879 18.612 31.0879 18.5167 30.8422 18.4672C30.58 18.4379 29.81 18.3517 29.81 18.4965C29.81 18.6414 30.0429 18.8155 30.4645 18.8742C30.8862 18.9329 31.0164 18.7807 31.0604 18.7ZM30.2317 19.5232C30.0465 19.4141 29.852 19.3214 29.6505 19.2464C29.5919 19.2317 29.403 19.1584 29.315 19.305C29.227 19.4517 29.2582 19.6717 29.8834 19.8422C30.5085 20.0127 30.3912 19.6167 30.2317 19.5232ZM29.315 20.7589C29.5479 20.438 28.8219 20.1905 28.5817 20.0897C28.5486 20.0684 28.5095 20.0583 28.4702 20.0609C28.4309 20.0636 28.3935 20.0788 28.3635 20.1044C28.2334 20.3079 28.7559 20.6544 28.8585 20.7149C28.9612 20.7754 29.1849 20.9 29.315 20.7589ZM29.8394 19.9724C29.359 19.712 28.8219 19.58 28.7394 19.7414C28.6569 19.9027 29.0015 20.1484 29.4727 20.3812C29.9439 20.614 30.0667 20.1044 29.8394 19.9724ZM16.5972 23.4667C16.6859 23.5169 16.791 23.5299 16.8893 23.5027C16.9876 23.4756 17.0711 23.4105 17.1215 23.3219C17.0105 23.0853 16.9316 22.835 16.8869 22.5775C16.7035 22.7829 16.544 22.9442 16.4359 23.089C16.3277 23.2339 16.4652 23.4172 16.5972 23.4667ZM16.5092 21.2667C16.4084 21.4702 16.4799 21.5857 16.5972 21.6444C16.6504 21.6531 16.7049 21.6494 16.7565 21.6335C16.808 21.6176 16.8552 21.5899 16.8942 21.5527C16.9392 21.3218 17.0118 21.0971 17.1105 20.8835L17.0904 20.8597C16.9309 20.7442 16.6265 21.0834 16.5092 21.2667ZM10.6664 17.2554C11.044 17.2994 12.8755 17.7632 13.3559 17.8512C13.8362 17.9392 15.202 17.8952 16.1755 17.9227C17.149 17.9502 17.5707 18.2435 17.7009 18.5919C17.831 18.9402 17.2792 19.6919 17.1637 19.9302C16.9804 20.2969 17.1784 20.3757 17.3562 20.4472C17.3855 20.4007 17.4167 20.3555 17.4497 20.3115C17.4792 19.9782 17.589 19.6571 17.7697 19.3755C17.9504 19.0939 18.1967 18.8602 18.4874 18.6945C18.733 18.5112 19.1254 18.2435 18.9365 17.7632C18.7477 17.2829 17.7449 17.2132 17.2865 17.1674C16.5948 17.1237 15.9011 17.1237 15.2094 17.1674C14.773 17.1967 13.5594 17.226 13.0277 17.226C12.496 17.226 11.0514 17.138 10.615 17.138C10.4922 17.1527 10.4922 17.2334 10.6664 17.2554ZM18.2637 17.3929C18.3921 17.4533 18.5148 17.5251 18.6304 17.6074C18.7423 17.6793 18.8244 17.7894 18.8614 17.9172V17.9282C18.8738 18.0404 18.8514 18.1537 18.7972 18.2527C18.7185 18.3791 18.615 18.4883 18.4929 18.5735C18.4802 18.5844 18.4655 18.5926 18.4495 18.5975C18.4336 18.6024 18.4168 18.604 18.4003 18.6021C18.3837 18.6003 18.3677 18.595 18.3532 18.5866C18.3388 18.5783 18.3263 18.567 18.3164 18.5536C18.3065 18.5402 18.2995 18.5249 18.2958 18.5086C18.2921 18.4923 18.2919 18.4755 18.295 18.4591C18.2981 18.4427 18.3046 18.4272 18.3141 18.4134C18.3235 18.3997 18.3357 18.388 18.3499 18.3792C18.4449 18.3181 18.5246 18.236 18.5827 18.139C18.6134 18.0831 18.6262 18.0191 18.6194 17.9557C18.5886 17.8936 18.541 17.8415 18.4819 17.8054C18.3819 17.7337 18.2751 17.6723 18.1629 17.622C18.1478 17.6154 18.1342 17.6059 18.1228 17.594C18.1115 17.5821 18.1026 17.5681 18.0966 17.5528C18.0906 17.5375 18.0878 17.5211 18.0881 17.5047C18.0885 17.4883 18.0921 17.4721 18.0987 17.457C18.1053 17.442 18.1148 17.4284 18.1267 17.417C18.1386 17.4056 18.1526 17.3967 18.1679 17.3908C18.1832 17.3848 18.1996 17.3819 18.216 17.3823C18.2324 17.3826 18.2486 17.3862 18.2637 17.3929ZM15.6952 20.977C15.8547 20.845 16.1902 20.5829 16.0454 20.394C15.9134 20.2345 15.477 20.5975 15.3322 20.6709C14.85 20.977 15.4 21.2374 15.6952 20.977ZM15.8547 21.3969C16.0875 21.5582 16.2214 21.3969 16.335 21.2814C16.4487 21.1659 16.83 20.7735 16.6834 20.5975C16.5367 20.4215 16.2195 20.7295 16.0875 20.801C15.95 20.9624 15.5944 21.208 15.8547 21.3969ZM16.0014 21.9212C15.8643 21.8769 15.7286 21.8286 15.5944 21.7764C15.1727 22.066 14.2139 22.7059 14.0525 22.8214C13.8344 22.968 13.7189 23.2137 14.1552 23.188C14.5346 23.1182 14.895 22.9693 15.213 22.751C15.5311 22.5328 15.7997 22.25 16.0014 21.9212ZM15.4 22.9534C15.2167 23.1367 15.3414 23.4612 15.6604 23.32C16.1271 23.0551 16.4908 22.6404 16.6925 22.143C16.5683 22.1104 16.4459 22.0712 16.3259 22.0257C16.0729 22.2842 15.6805 22.7205 15.4 22.9534ZM5.95652 19.173C8.04167 19.1803 10.1247 19.0394 12.1899 18.7514C12.5565 18.6799 12.6115 18.5919 12.6115 18.491C12.6115 18.3902 12.3219 18.3077 12.001 18.3297C11.6802 18.3517 9.00719 18.491 8.67352 18.513C8.33986 18.535 5.35886 18.513 4.76302 18.4984C4.67502 18.4984 4.50086 18.4837 4.66036 18.7165C5.02153 19.023 5.48302 19.1855 5.95652 19.173ZM13.0167 20.1337C13.3082 20.031 13.3082 19.8275 13.2642 19.712C13.2202 19.5965 13.0167 19.5525 12.595 19.6534C11.5629 19.9302 7.72569 20.5407 7.14452 20.6122C7.14452 20.6122 6.94102 20.6415 7.12986 20.7955C7.62231 21.0172 8.16254 21.1118 8.70102 21.0705C9.32802 21.0192 12.716 20.2345 13.0167 20.1337ZM13.123 18.3884C13.5154 18.3737 13.981 18.2729 13.981 18.128C13.981 17.9832 13.398 17.9447 13.079 17.9447C12.65 17.952 12.628 18.4177 13.123 18.3884ZM8.10885 18.1702C8.60202 18.1702 11.9589 18.1262 12.2357 18.1134C12.5125 18.1005 12.4685 17.8659 12.2357 17.7925C10.836 17.5439 9.42424 17.3695 8.00619 17.27C7.54052 17.27 5.17186 17.1967 4.15619 17.1967C3.86469 17.2114 3.44302 17.1967 3.77852 17.633C4.22769 18.2289 7.61385 18.1702 8.10885 18.1702ZM12.8169 19.1015C12.7875 18.9549 12.5565 18.9695 12.2064 18.9989C11.1889 19.217 6.33969 19.58 5.91252 19.58C5.48536 19.58 6.20402 20.1777 6.81452 20.1905C8.73934 20.0603 10.6529 19.7981 12.5419 19.4059C12.8334 19.3197 12.8462 19.25 12.8169 19.1015ZM15.2735 21.5875C15.1727 21.5435 14.9545 21.4042 14.8372 21.34C14.0055 21.8187 13.1353 22.2272 12.2357 22.561C11.9882 22.6472 12.1055 22.88 12.353 22.9094C12.9218 22.9655 13.4923 22.8216 13.9664 22.5024C14.4206 22.2248 14.8572 21.9193 15.2735 21.5875ZM13.8344 20.3665C13.7922 20.2639 13.6895 20.1832 13.4127 20.2639C12.4539 20.6305 9.10986 21.384 8.70286 21.4702C8.67536 21.5875 8.61669 21.5875 8.74685 21.6535C9.06091 21.8031 9.40209 21.8873 9.74969 21.901C11.1141 21.6504 12.4457 21.2457 13.7189 20.6947C13.7512 20.6848 13.7808 20.6674 13.8052 20.6439C13.8296 20.6205 13.8481 20.5916 13.8593 20.5597C13.8706 20.5278 13.8742 20.4937 13.8698 20.4602C13.8655 20.4266 13.8533 20.3945 13.8344 20.3665ZM14.1552 20.7735C12.9936 21.3012 11.7987 21.7526 10.5784 22.1247C10.3327 22.1834 10.2007 22.3722 10.4922 22.473C10.9619 22.5483 11.4423 22.524 11.902 22.4015C12.8786 22.1437 13.7996 21.7087 14.619 21.1182C14.4453 21.0315 14.2883 20.9148 14.1552 20.7735ZM14.0819 19.8422C14.7217 19.6589 14.751 19.4499 14.663 19.305C14.575 19.1602 14.3734 19.2317 14.3294 19.2464C14.1266 19.3183 13.9318 19.4111 13.7482 19.5232C13.5887 19.6167 13.4567 20.0017 14.0819 19.8422ZM17.4699 18.5919C17.3479 18.442 17.195 18.3203 17.0215 18.2352C16.8481 18.1501 16.6583 18.1035 16.4652 18.0987C15.8059 18.0483 15.1443 18.0336 14.4834 18.0547C14.3 18.084 14.3825 18.447 14.6869 18.359C14.3532 18.5424 14.542 18.766 14.8464 18.7257C14.663 18.9714 14.949 19.118 15.1965 19.0447C14.905 19.437 15.3799 19.4517 15.5302 19.3215C15.2827 19.8294 15.6897 19.8147 15.9372 19.6112C15.7777 20.0035 16.1205 20.0329 16.4029 19.8734C16.1847 20.1209 16.4322 20.2804 16.5624 20.1795C16.7072 20.0475 17.0849 19.6845 17.2315 19.5104C17.3782 19.3362 17.644 18.8687 17.4699 18.5919ZM15.114 20.7167C15.2167 20.658 15.7245 20.3097 15.5944 20.1062C15.5504 20.0329 15.433 20.0622 15.3909 20.0915C15.158 20.1924 14.4302 20.4399 14.6575 20.7607C14.795 20.9 15.0334 20.7735 15.114 20.7167ZM13.5007 18.8687C13.937 18.81 14.1699 18.6359 14.1699 18.491C14.1699 18.3462 13.398 18.4324 13.1377 18.4617C12.8902 18.5057 12.8902 18.6065 12.9195 18.6945C12.9489 18.7825 13.079 18.9402 13.5007 18.8687ZM14.4834 20.3812C14.9637 20.1484 15.2974 19.9155 15.2167 19.7414C15.136 19.5672 14.608 19.712 14.1167 19.9724C13.9224 20.1044 14.0232 20.6122 14.4834 20.3812ZM14.1259 19.305C14.5475 19.0869 14.5182 19.0429 14.4742 18.9274C14.4302 18.8119 13.9957 18.898 13.5447 18.9842C13.3852 18.9989 13.2385 19.1309 13.2825 19.2757C13.3412 19.4499 13.7189 19.5085 14.1259 19.305ZM23.9324 27.1774L23.309 25.6814C23.182 25.7086 23.0542 25.7324 22.9259 25.7529C22.9166 25.7683 22.9134 25.7865 22.9167 25.8042L23.2944 27.3882L23.3182 27.4725C23.3399 27.5666 23.3979 27.6483 23.4795 27.6999C23.5493 27.7352 23.6298 27.7431 23.705 27.7219L23.76 27.7072L23.793 27.6962C23.8283 27.6842 23.8608 27.6652 23.8886 27.6403C23.9163 27.6154 23.9387 27.5852 23.9544 27.5514C23.9906 27.4531 23.9906 27.3452 23.9544 27.247L23.9324 27.1774ZM22.209 27.467L22.077 25.8537V25.8354H21.6755V25.85L21.5435 27.4634V27.5312C21.5351 27.6365 21.5665 27.7412 21.6315 27.8245C21.6912 27.8836 21.7712 27.9177 21.8552 27.9199H21.9487C21.9834 27.9189 22.0175 27.911 22.049 27.8965C22.0805 27.882 22.1087 27.8612 22.132 27.8355C22.1899 27.7617 22.2215 27.6708 22.2219 27.577C22.2157 27.5465 22.2115 27.5098 22.209 27.467ZM20.196 25.6667C20.1998 25.6577 20.2018 25.648 20.2018 25.6383C20.2018 25.6285 20.1998 25.6189 20.196 25.6099C20.0676 25.5766 19.9404 25.5387 19.8147 25.4962L18.9952 26.8749C18.9265 26.9794 18.8954 27.1042 18.9072 27.2287C18.9183 27.2754 18.9395 27.3191 18.9693 27.3568C18.999 27.3945 19.0367 27.4252 19.0795 27.4469C19.126 27.4716 19.1772 27.486 19.2297 27.4892C19.2822 27.4923 19.3348 27.4841 19.3839 27.4652C19.4868 27.4036 19.5628 27.3054 19.5965 27.1902L19.6277 27.1004L19.7212 26.873L20.1924 25.6777L20.196 25.6667ZM20.4527 27.3937L20.8304 25.8079C20.8365 25.7913 20.8365 25.7731 20.8304 25.7565C20.702 25.7361 20.5743 25.7123 20.4472 25.685L19.9192 26.95L19.7945 27.2654C19.7632 27.3594 19.7632 27.461 19.7945 27.555C19.8104 27.589 19.8331 27.6194 19.8611 27.6443C19.8892 27.6692 19.922 27.6881 19.9577 27.6999L19.9925 27.7109L20.0292 27.7219C20.1074 27.7472 20.1924 27.7406 20.2657 27.7035C20.355 27.6454 20.4201 27.5568 20.449 27.4542L20.4527 27.3937ZM22.7059 25.8097L22.6949 25.784C22.5669 25.799 22.4385 25.8106 22.3099 25.8189C22.2995 25.8325 22.2944 25.8494 22.2952 25.8665L22.3905 27.2085L22.4107 27.4505V27.5092C22.414 27.6225 22.456 27.7312 22.5299 27.8172C22.5692 27.8493 22.6147 27.8729 22.6637 27.8864C22.7126 27.9 22.7638 27.9033 22.814 27.896C22.8621 27.8902 22.9082 27.8733 22.9486 27.8466C22.9891 27.8198 23.0227 27.784 23.0469 27.742C23.0954 27.6257 23.1025 27.4963 23.067 27.3754L22.7059 25.8097ZM21.45 25.8647C21.4509 25.8476 21.4457 25.8307 21.4354 25.817C21.3049 25.8083 21.1747 25.7961 21.0449 25.7804V25.8097L20.6782 27.3772C20.6427 27.4981 20.6498 27.6276 20.6984 27.7439C20.7225 27.7859 20.7561 27.8217 20.7966 27.8484C20.837 27.8751 20.8831 27.8921 20.9312 27.8979C20.9811 27.9048 21.032 27.9014 21.0806 27.8879C21.1292 27.8743 21.1744 27.8509 21.2135 27.819C21.2893 27.7341 21.3323 27.6248 21.3345 27.511V27.4524L21.3547 27.2122L21.45 25.8684V25.8647ZM23.9324 25.5054C23.806 25.5473 23.6782 25.5846 23.5492 25.6172C23.5432 25.6357 23.5432 25.6556 23.5492 25.674L24.0204 26.8694L24.1157 27.0967L24.1487 27.1902C24.182 27.3051 24.2572 27.4032 24.3595 27.4652C24.4086 27.4841 24.4612 27.4923 24.5137 27.4892C24.5662 27.486 24.6174 27.4716 24.6639 27.4469C24.7055 27.426 24.7419 27.3961 24.7705 27.3593C24.7991 27.3225 24.819 27.2797 24.8289 27.2342C24.8458 27.1063 24.8173 26.9765 24.7482 26.8675L23.9324 25.5054ZM18.8504 18.5919C18.3416 18.8876 17.9603 19.361 17.7797 19.921C18.3259 19.4044 18.9686 19.0005 19.6711 18.7325C20.3736 18.4645 21.122 18.3376 21.8735 18.359C22.6983 18.3269 23.5198 18.4802 24.2775 18.8076C25.0352 19.1351 25.7097 19.6283 26.2515 20.251C26.1985 19.91 26.0703 19.5851 25.8762 19.2997C25.6822 19.0144 25.4271 18.7757 25.1295 18.601C24.8674 18.37 24.6345 18.1647 24.9462 17.5689C24.9619 17.5391 24.9803 17.5109 25.0012 17.4845C24.0446 17.0639 23.0131 16.8405 21.9683 16.8275C20.9234 16.8146 19.8867 17.0125 18.92 17.4094C18.9711 17.4544 19.0134 17.5084 19.0447 17.5689C19.3289 18.15 19.1107 18.3609 18.8504 18.5919ZM28.0665 23.6097C27.9766 23.5816 27.8889 23.5467 27.8044 23.5052C27.5715 24.0442 26.7429 23.8114 26.4514 23.65C25.894 24.4864 25.0772 25.1164 24.1267 25.443L24.9095 26.7612C25.466 26.5208 25.9866 26.205 26.4569 25.8225C27.1811 25.2416 27.7369 24.4776 28.0665 23.6097ZM17.3525 23.7289C16.9859 23.8645 16.3717 23.958 16.1755 23.5052C16.024 23.5796 15.862 23.6303 15.6952 23.6555C16.0286 24.5031 16.5786 25.2484 17.2902 25.817C17.7604 26.1995 18.2811 26.5153 18.8375 26.7557L19.6204 25.4357C18.7028 25.121 17.9088 24.5234 17.3525 23.7289ZM21.8735 16.6155C23.0072 16.6086 24.1284 16.8522 25.157 17.3287C25.219 17.2894 25.2833 17.2539 25.3495 17.2224C24.281 16.716 23.1148 16.449 21.9324 16.4402C20.75 16.4313 19.5799 16.6807 18.5039 17.171C18.5773 17.1982 18.649 17.23 18.7184 17.2664C19.7141 16.8345 20.7882 16.613 21.8735 16.6155ZM18.7495 26.9372C18.1786 26.6901 17.6444 26.3656 17.1619 25.9729C16.4067 25.3685 15.8274 24.5727 15.4844 23.6684C15.423 23.6665 15.3618 23.6616 15.301 23.6537C15.2184 23.6391 15.1382 23.6131 15.0627 23.5767C15.4058 24.622 16.0422 25.5467 16.896 26.2405C17.4462 26.6937 18.0595 27.0643 18.7165 27.3405L18.7 27.2782C18.6915 27.2229 18.6915 27.1666 18.7 27.1114C18.7093 27.0515 18.7259 26.993 18.7495 26.9372ZM26.5834 25.9692C26.1005 26.3634 25.5656 26.6891 24.9939 26.9372C25.0148 26.9927 25.029 27.0506 25.036 27.1095C25.6408 26.8489 26.2056 26.5039 26.7135 26.0847C27.4958 25.4498 28.0914 24.6148 28.4369 23.6684C28.3794 23.6708 28.3232 23.6659 28.2682 23.6537C27.9256 24.5633 27.3435 25.3634 26.5834 25.9692ZM22.2989 27.9419H22.3685L22.33 27.8942L22.2989 27.9419ZM19.5819 27.5807L19.5305 27.6192L19.6039 27.6412L19.5819 27.5807ZM20.4894 27.7714L20.4325 27.83L20.5224 27.8447L20.4894 27.7714ZM24.145 27.6339L24.2202 27.6119L24.1689 27.5734L24.145 27.6339ZM21.3785 27.9382H21.4555L21.417 27.8832L21.3785 27.9382ZM23.254 27.7769C23.254 27.797 23.2375 27.8172 23.2284 27.8374L23.3145 27.8227L23.254 27.7769Z" fill="#0F0F0F"/>
</svg>
