<svg width="44" height="44" viewBox="0 0 44 44" fill="none" xmlns="http://www.w3.org/2000/svg">
<path d="M39.4368 26.7832C36.6543 20.1778 32.0436 14.5044 26.147 10.4298C24.902 9.49261 23.4967 8.78998 22 8.35632C20.5032 8.78998 19.098 9.49261 17.853 10.4298C11.9556 14.5041 7.34431 20.1776 4.56131 26.7832C4.11712 27.8217 3.81615 28.9158 3.66664 30.0355C3.65698 30.1477 3.67329 30.2606 3.71431 30.3655C3.74558 30.4896 3.80878 30.6034 3.89764 30.6955C4.78125 31.3791 5.74699 31.9495 6.77231 32.3932C11.5639 34.533 16.7523 35.6405 22 35.6437C27.244 35.6389 32.4284 34.5315 37.2166 32.3932C38.242 31.9495 39.2077 31.3791 40.0913 30.6955C40.1802 30.6034 40.2434 30.4896 40.2746 30.3655C40.3157 30.2606 40.332 30.1477 40.3223 30.0355C40.1757 28.9163 39.8779 27.8222 39.4368 26.7832ZM7.20131 31.449C6.42128 31.1116 5.69196 30.6673 5.03431 30.129C4.97577 30.0583 4.92818 29.9792 4.89314 29.8943C4.85228 29.8055 4.83583 29.7074 4.84548 29.6102C4.96511 28.7801 5.20279 27.9713 5.55131 27.2085C7.86029 21.6961 11.4817 16.8316 16.1003 13.0387C16.434 12.7655 16.7713 12.4887 17.1141 12.2338L17.6293 11.8452C17.8896 11.652 18.1524 11.4632 18.4176 11.2787L18.4341 11.2677L18.4635 11.2475L18.5038 11.22L18.557 11.1833L18.623 11.1412L18.7 11.0917L18.788 11.0348L18.8833 10.9743L19.041 10.8735C19.7302 10.4245 20.4578 10.0373 21.2153 9.71666L21.285 9.69099C21.4306 9.63824 21.5794 9.59476 21.7305 9.56082C21.8195 9.54502 21.9096 9.53583 22 9.53332L22.1558 9.54432C22.2344 9.55516 22.3121 9.57108 22.3886 9.59199L22.5151 9.62866L22.6471 9.67082C22.7376 9.70138 22.8305 9.73682 22.9258 9.77716C22.9735 9.79549 23.0211 9.81566 23.0688 9.83766L23.1421 9.87066C23.3133 9.94888 23.4868 10.0332 23.6628 10.1237C23.9158 10.2557 24.1603 10.3907 24.3961 10.5288L24.4823 10.5783L24.728 10.7268L24.9113 10.8387L25.1276 10.9743L25.168 11L25.3 11.0862L25.377 11.1357L25.4411 11.1778L25.5823 11.2732C25.8231 11.4406 26.062 11.6123 26.2991 11.7883L26.4531 11.902C26.6487 12.0474 26.843 12.1947 27.0361 12.3438L27.2598 12.5272L27.7603 12.9305C28.7026 13.698 29.6059 14.5108 30.47 15.3688C33.8837 18.7525 36.5952 22.7773 38.4486 27.2122C38.7972 27.975 39.0348 28.7837 39.1545 29.6138C39.1647 29.7109 39.1489 29.809 39.1086 29.898C39.071 29.9819 39.0229 30.0607 38.9656 30.1327C38.308 30.671 37.5787 31.1152 36.7986 31.4527C32.132 33.4953 27.0941 34.5532 22 34.5602H21.2666C16.4198 34.4537 11.6409 33.3967 7.20131 31.449ZM25.4393 33.6178V25.4632L22 27.5367L18.5588 25.4632V33.6178C19.7009 33.7508 20.8502 33.812 22 33.8012C23.1491 33.812 24.2978 33.7507 25.4393 33.6178ZM5.74014 29.3755V29.5588C5.78781 29.6047 5.83364 29.7 5.88131 29.7422C6.38984 30.1368 6.94378 30.4692 7.53131 30.7322C8.42598 31.1098 9.32248 31.4875 10.2171 31.8175L10.4005 20.1758C8.72911 22.4409 7.33846 24.9002 6.25898 27.5C5.99914 28.0978 5.8245 28.7291 5.74014 29.3755ZM28.5028 23.6262V33.1925C29.2581 33.0513 29.9695 32.9102 30.6716 32.7213C30.624 28.5743 30.5305 22.3997 30.5305 22.3997L28.5028 23.6262ZM26.6658 13.068C26.17 12.661 25.6509 12.2833 25.1111 11.9368C24.174 11.2391 23.1206 10.7127 22 10.3822C20.8774 10.7121 19.8222 11.2385 18.8833 11.9368C18.3435 12.2833 17.8244 12.661 17.3286 13.068L22 15.8492L26.6658 13.068ZM21.9908 19.4773L18.5496 17.3562V21.8827L21.9908 23.9562L25.4338 21.8827V17.3562L21.9908 19.4773ZM13.3283 32.7213C14.036 32.9047 14.7418 33.0513 15.4953 33.1925V23.6262L13.4786 22.3997C13.4786 22.3997 13.3833 28.5743 13.3283 32.7213ZM36.4686 30.7413C37.0562 30.4783 37.6101 30.146 38.1186 29.7513C38.1663 29.7055 38.2121 29.6102 38.2598 29.568V29.3847C38.1763 28.7352 38.0016 28.1007 37.741 27.5C36.6584 24.9063 35.266 22.4532 33.594 20.1942L33.7351 31.8358C34.6775 31.4967 35.5666 31.119 36.4686 30.7413ZM28.5028 14.5768V20.0438L31.9 18.018C30.8408 16.8009 29.7062 15.6516 28.5028 14.5768ZM15.4953 14.5768C14.2926 15.6516 13.1586 16.8009 12.1 18.018L15.4935 20.0438L15.4953 14.5768ZM22 26.642L26.1946 24.0973V34.0413L26.2918 34.0322C26.7776 33.9827 27.2635 33.8947 27.7585 33.8048V23.155L31.2931 21.0338L31.4765 33.0055C31.9953 32.8643 32.5123 32.7213 32.9853 32.5802L32.802 18.348L27.8666 21.2923L27.7493 21.3638V13.2972L22 16.7457L16.2506 13.3045V21.3712L11.2071 18.348L11.0238 32.5802C11.495 32.7213 12.0138 32.8643 12.5326 33.0055L12.716 21.0338L16.2506 23.155V33.8048C16.7676 33.8983 17.2828 33.9882 17.7998 34.0395V24.0973L22 26.642ZM17.8053 16.038L22 18.5368L26.1946 16.038V22.3062L22 24.8508L17.8053 22.3062V16.038Z" fill="#0F0F0F"/>
</svg>
