<svg width="44" height="44" viewBox="0 0 44 44" fill="none" xmlns="http://www.w3.org/2000/svg">
<g clip-path="url(#clip0_0_142)">
<path d="M43.5783 19.998C43.1566 12.6317 40.8429 7.36633 37.4733 4.422C33.8964 1.26317 27.1589 0 22.1044 0C16.8428 0 10.3161 1.26317 6.73742 4.422C3.37142 7.36817 0.843252 12.8407 0.421585 19.998C-8.14795e-05 26.7355 1.47392 34.3163 5.26342 38.5257C8.84209 42.735 16.2121 44 21.8954 44C27.5788 44 34.9488 42.7368 38.5274 38.5257C42.5241 34.3163 44.0018 26.9463 43.5783 19.998ZM20.8449 2.10283H23.3694V18.1078H20.8449V2.10283ZM3.37142 26.7392C3.15875 24.002 2.31725 14.1075 6.31759 8.42417C8.00242 5.89417 10.3179 4.213 12.8443 3.36967C16.2139 2.1065 20.4233 2.1065 20.4233 2.1065C18.7384 6.105 15.5814 14.7382 14.9508 16.6338C14.1074 18.9493 13.4768 20.2125 12.8424 24.4218C12.4226 27.7915 11.5811 36.4228 11.5811 40.2105C6.73925 37.8968 4.00392 33.6838 3.37142 26.7355M32.4243 40.4232C29.2654 41.8953 25.2651 42.1062 22.1063 42.1062C18.9493 42.1062 14.9508 41.6845 11.7919 40.4232C12.8443 37.477 17.8969 25.2633 20.6341 20.4215H23.5821C26.3193 25.267 31.3701 37.686 32.4243 40.4232ZM40.8429 26.7355C40.2123 33.6838 37.4751 37.8968 32.8441 40.2105C32.6333 36.4228 32.0026 27.7915 31.5809 24.4218C30.9484 20.2125 30.3196 18.9493 29.4762 16.6338C28.8438 14.7382 25.4759 6.10683 24.0019 2.1065C24.0019 2.1065 28.0004 2.1065 31.5809 3.3715C34.1073 4.21117 36.4246 5.896 38.1076 8.42417C41.6863 14.1075 41.0538 24.002 40.8448 26.7392" fill="#7B7B7B"/>
</g>
<defs>
<clipPath id="clip0_0_142">
<rect width="44" height="44" fill="white"/>
</clipPath>
</defs>
</svg>
