<svg width="44" height="44" viewBox="0 0 44 44" fill="none" xmlns="http://www.w3.org/2000/svg">
<path d="M16.2928 22.242H18.139C18.2752 22.2661 18.4072 22.3093 18.5313 22.3703C18.7058 22.4619 18.899 22.5121 19.096 22.517H24.8197C25.0166 22.5121 25.2099 22.4619 25.3843 22.3703C25.5084 22.3093 25.6405 22.2661 25.7767 22.242C25.8647 22.231 26.4367 22.242 27.6228 22.242C30.5268 22.253 35.9278 22.2732 38.874 22.0458C39.1288 22.0275 39.5872 21.9578 39.864 21.9138C39.655 21.8973 26.3945 21.8185 26.2607 21.8167C26.0644 21.8291 25.8694 21.8573 25.6777 21.901C25.5214 21.9588 25.3679 22.0236 25.2175 22.0953C25.0342 22.1778 24.7995 22.2787 24.6932 22.3153C24.3998 22.4033 21.9212 22.407 21.8148 22.407V22.3355L21.8038 22.4033C21.1053 22.4033 19.4737 22.385 19.2372 22.3153C19.1308 22.2823 18.9182 22.187 18.7128 22.0953C18.5075 22.0037 18.3462 21.9303 18.2527 21.901C18.0591 21.857 17.8623 21.8288 17.6642 21.8167C17.534 21.8167 4.28082 21.8973 4.06449 21.9157C4.34315 21.9597 4.79782 22.0275 5.05449 22.0477C7.98599 22.2732 13.3888 22.253 16.2928 22.242ZM26.411 22.7773H17.4772C17.4772 22.8397 17.5432 23.0267 17.9392 23.3732C18.1475 23.5669 18.3974 23.7106 18.6696 23.7932C18.9419 23.8758 19.2294 23.8952 19.5103 23.8498H21.857H24.3742C24.6549 23.8954 24.9424 23.8763 25.2146 23.794C25.4869 23.7117 25.7368 23.5684 25.9453 23.375C26.345 23.0267 26.4037 22.8397 26.411 22.7773ZM19.096 23.144C19.0291 23.1348 18.9618 23.1293 18.8943 23.1275C18.7422 23.1275 18.6487 23.1642 18.6487 23.2503C18.6487 23.3365 18.7477 23.3732 18.8943 23.3732C18.9618 23.372 19.0291 23.3671 19.096 23.3585H19.1143L19.0997 23.441C19.0201 23.4524 18.9399 23.4585 18.8595 23.4593C18.5827 23.4593 18.4488 23.3713 18.4488 23.2448C18.4488 23.1183 18.5845 23.0322 18.8668 23.0322C18.9447 23.0333 19.0225 23.0395 19.0997 23.0505L19.1162 23.133H19.0978L19.096 23.144ZM20.0768 23.4465H19.8733V23.2962H19.5488V23.4465H19.3508V23.0468H19.5488V23.1953H19.8733V23.0487H20.0768V23.4465ZM20.7973 23.4465L20.5773 23.2467H20.735C20.79 23.2357 20.8175 23.2173 20.8175 23.1917C20.8175 23.1642 20.7992 23.1477 20.7423 23.1385H20.5388V23.4447H20.3445V23.0468H20.6415C20.7214 23.0449 20.8013 23.0516 20.8798 23.067C20.988 23.0908 21.0173 23.1293 21.0173 23.177C21.0173 23.221 20.988 23.2393 20.9293 23.2577C20.8957 23.2694 20.8605 23.2762 20.8248 23.2778L21.0485 23.4373L20.7973 23.4465ZM21.769 23.1348L21.5857 23.2888V23.4557H21.384V23.2925L21.098 23.0542H21.3327L21.5288 23.2228L21.6993 23.0688L21.7158 23.0523H21.8533L21.769 23.1348ZM22.2713 23.4722C22.1667 23.4707 22.0625 23.4603 21.9597 23.441L21.978 23.3567H21.9963V23.3438C22.0832 23.3698 22.1734 23.3828 22.264 23.3823C22.3832 23.3823 22.4235 23.3658 22.4235 23.3383L22.4143 23.32C22.3486 23.3009 22.281 23.2892 22.2127 23.2852C22.0697 23.2687 21.9633 23.2448 21.9633 23.1532C21.9633 23.0615 22.1467 23.0322 22.2805 23.0322C22.3849 23.0318 22.4892 23.0404 22.5922 23.0578L22.5775 23.1348H22.5592V23.1477C22.4834 23.1298 22.406 23.1199 22.3282 23.1183C22.209 23.1183 22.1852 23.1293 22.1852 23.155V23.1678C22.2383 23.186 22.294 23.1959 22.3502 23.1972C22.5665 23.2228 22.6417 23.2595 22.6417 23.331C22.6508 23.4263 22.4638 23.4612 22.2713 23.4612V23.4722ZM23.5253 23.4538H22.8745V23.0468H23.0743V23.3622H23.518L23.5253 23.4538ZM24.3577 23.4538H23.6958V23.0468H24.3503V23.1128H24.332V23.122H23.9012V23.21H24.3412V23.276H23.9012V23.3695H24.3595L24.3577 23.4538ZM25.0342 23.4538L24.8087 23.2467H24.97C25.0238 23.2357 25.0513 23.2173 25.0525 23.1917C25.0525 23.1642 25.0342 23.1477 24.9773 23.1385H24.7738V23.4557H24.5722V23.0468H24.8783C24.9606 23.048 25.0426 23.0548 25.124 23.067C25.234 23.0927 25.2652 23.133 25.2652 23.1788C25.2652 23.2247 25.234 23.2448 25.1735 23.265C25.1391 23.2763 25.1033 23.2825 25.0672 23.2833L25.2963 23.4483L25.0342 23.4538ZM38.885 22.1833C35.9333 22.4107 30.525 22.3905 27.6228 22.3795H25.7895C25.6665 22.4012 25.5473 22.4407 25.4357 22.4968C25.2422 22.5955 25.0293 22.65 24.8123 22.6563H19.096C18.879 22.65 18.6661 22.5955 18.4727 22.4968C18.3616 22.4409 18.2431 22.4014 18.1207 22.3795C17.5096 22.3678 16.8984 22.3678 16.2873 22.3795C13.3815 22.3905 7.97499 22.4107 5.02515 22.1833C4.63832 22.154 3.82432 22.0183 3.78949 22.0128H3.76932V22.0348C3.76863 22.064 3.77492 22.0929 3.78765 22.1192L3.74182 22.0953C4.05976 22.5028 4.47971 22.819 4.95915 23.012C5.44853 23.2984 5.99901 23.4643 6.56516 23.496L8.88799 23.8517C12.5437 24.4292 17.9978 25.2633 18.0785 25.2743C18.0785 25.2743 18.3407 25.311 18.6688 25.3477C19.2064 25.4268 19.7506 25.4513 20.2932 25.421C20.5525 25.3176 20.8215 25.2402 21.0962 25.19C21.367 25.159 21.6394 25.1431 21.912 25.1423C22.2183 25.1321 22.5249 25.1474 22.8287 25.1882C23.1039 25.2383 23.3735 25.3157 23.6335 25.4192C24.1754 25.4494 24.719 25.4248 25.256 25.3458C25.4532 25.3249 25.65 25.3005 25.8463 25.2725C25.927 25.2597 31.3812 24.4292 35.0368 23.8498L37.3597 23.4942C37.9241 23.4528 38.4724 23.2876 38.9657 23.0102C39.4549 22.8349 39.8794 22.5153 40.183 22.0935L40.1372 22.1173C40.1499 22.0911 40.1562 22.0622 40.1555 22.033V22.0073H40.1097C40.0858 22.0183 39.2718 22.154 38.885 22.1833ZM16.7017 24.1468C15.8913 23.8003 14.795 23.0028 14.5493 22.9038C14.3896 22.8418 14.2176 22.818 14.047 22.8342C14.047 22.8342 8.41315 22.6068 7.77149 22.5592C7.12982 22.5078 5.98582 22.3758 5.98582 22.3758L14.278 22.5078C14.4262 22.5159 14.5734 22.5367 14.718 22.5702C14.8492 22.6112 14.973 22.6731 15.0847 22.7535H17.1912C17.1912 22.7535 16.4707 22.7737 16.412 22.803C16.3533 22.8323 16.3918 22.8525 16.3918 22.8525H14.8757L14.9343 22.913L15.389 22.9717L15.7337 23.2577H17.3837C17.2579 23.2814 17.135 23.3183 17.017 23.3677L16.9583 23.4153L17.6807 23.5583H16.214H16.2232C16.581 23.7882 16.9691 23.9672 17.3763 24.09C18.0379 24.2604 18.7064 24.4023 19.3802 24.5153C18.4749 24.5139 17.574 24.3906 16.7017 24.1487M24.3778 23.9103H19.4645C19.0766 23.9361 18.6879 23.8734 18.3278 23.727C18.1568 23.6416 17.9988 23.5324 17.8585 23.4025C17.3085 22.9387 17.3745 22.726 17.3745 22.726H17.4112V22.7022H26.4623V22.726H26.499C26.499 22.726 26.565 22.9387 26.015 23.4043C25.8746 23.5336 25.7166 23.6422 25.5457 23.727C25.1855 23.8734 24.7969 23.9361 24.409 23.9103H24.3778ZM36.1698 22.5592C35.5282 22.6087 29.8943 22.836 29.8943 22.836C29.7237 22.8198 29.5517 22.8436 29.392 22.9057C29.1445 23.0047 28.05 23.804 27.2397 24.1487C26.3729 24.3955 25.477 24.525 24.5758 24.5337C24.5758 24.5337 25.8592 24.3155 26.5797 24.1083C26.9867 23.9835 27.3751 23.8047 27.7347 23.5767H27.7438H26.2277L26.9518 23.4337H26.983L26.9243 23.3842C26.8062 23.3354 26.6833 23.2992 26.5577 23.276H28.2077L28.5523 22.99L29.007 22.9313L29.0657 22.8708H27.5568C27.5568 22.8708 27.5935 22.8525 27.5367 22.8213C27.478 22.792 26.7575 22.7718 26.7575 22.7718H28.8585C28.9701 22.6915 29.0939 22.6296 29.2252 22.5885C29.3697 22.555 29.517 22.5342 29.6652 22.5262L37.9573 22.3923C37.9573 22.3923 36.8078 22.5207 36.1698 22.5665V22.5592ZM19.6313 19.7487V19.9155H20.504V19.2005L21.6517 18.183V18.1133H21.0613L20.8468 18.3058L20.2492 18.8118L19.6258 18.3058L19.4058 18.1133H18.392V18.1812L19.6313 19.2115V19.7487ZM35.3613 19.8513V18.491C35.4805 18.491 35.6125 18.469 35.8178 18.469C35.9825 18.4653 36.1473 18.4726 36.311 18.491C36.531 18.5277 36.63 18.5918 36.6538 18.6743C36.6263 18.7678 36.5072 18.8577 36.2688 18.8833C36.1204 18.901 35.971 18.9096 35.8215 18.909H35.5575V19.019L36.5475 19.921H37.6603V19.7487L36.8152 19.1803C36.9197 19.1648 37.0228 19.1403 37.1232 19.107C37.389 19.0208 37.5192 18.8833 37.521 18.7293V18.6487C37.5189 18.5754 37.4949 18.5045 37.4521 18.445C37.4093 18.3855 37.3496 18.3403 37.2808 18.315C37.1614 18.2552 37.0343 18.2121 36.9032 18.1867C36.5489 18.117 36.188 18.0862 35.827 18.095C35.1982 18.095 34.5437 18.1188 34.4868 18.1225V19.9283H35.3613V19.8513ZM15.6145 19.8513V18.491C15.7355 18.491 15.8675 18.469 16.0728 18.469C16.2369 18.4653 16.4011 18.4727 16.5642 18.491C16.7878 18.5277 16.885 18.5918 16.9088 18.6743C16.8813 18.7678 16.7622 18.8577 16.5275 18.8815C16.3778 18.8993 16.2272 18.9079 16.0765 18.9072H15.8107V19.0172L16.8043 19.9192H17.9135V19.7487L17.0683 19.1803C17.1729 19.1648 17.276 19.1403 17.3763 19.107C17.6422 19.0208 17.7742 18.8833 17.7742 18.7293V18.6487C17.772 18.5754 17.748 18.5045 17.7052 18.445C17.6624 18.3855 17.6028 18.3403 17.534 18.315C17.4145 18.2552 17.2875 18.2121 17.1563 18.1867C16.8018 18.1184 16.4411 18.0876 16.0802 18.095C15.4532 18.095 14.7968 18.1188 14.7418 18.1225V19.9283H15.6145V19.8513ZM7.76232 19.9943C8.11619 19.9879 8.4694 19.961 8.82015 19.9137L8.89716 19.481V19.4077C8.58074 19.4462 8.26253 19.4683 7.94382 19.4737C7.29666 19.4737 6.84382 19.3343 6.80715 18.9915C6.85116 18.6248 7.27832 18.4782 7.95849 18.4782C8.27262 18.4825 8.58616 18.507 8.89716 18.5515V18.4708L8.86049 18.3058L8.82015 18.1225C8.47839 18.0719 8.13347 18.0456 7.78799 18.0437C7.30451 18.0148 6.82141 18.1062 6.38182 18.3095C6.2544 18.36 6.14469 18.4469 6.06642 18.5594C5.98816 18.6719 5.94482 18.805 5.94182 18.942V19.0557C5.94182 19.613 6.53399 19.9943 7.76232 19.9943ZM25.3587 19.3912V19.2573C25.3587 18.9658 25.0287 18.8173 24.0918 18.7073C23.738 18.6707 23.3585 18.6432 23.3035 18.524C23.3402 18.447 23.4868 18.4103 23.9598 18.4103C24.3255 18.4132 24.6897 18.4581 25.0452 18.5442L25.1075 18.1775V18.1353C24.6569 18.0583 24.2006 18.0196 23.7435 18.0198C23.3054 17.9781 22.865 18.0722 22.4822 18.2893C22.4458 18.3184 22.4163 18.3552 22.396 18.397C22.3757 18.4389 22.3651 18.4848 22.3648 18.5313V18.6175C22.3648 19.0208 22.8305 19.1162 23.4648 19.195C24.0002 19.261 24.2972 19.2885 24.3815 19.3783C24.3118 19.4572 24.101 19.4993 23.661 19.4993C23.2434 19.4955 22.8278 19.4407 22.4235 19.3362C22.4235 19.3508 22.341 19.7707 22.341 19.7707C22.3365 19.7937 22.3365 19.8173 22.341 19.8403C22.7866 19.9329 23.2407 19.9777 23.6958 19.9742C24.5465 19.9943 25.3587 19.8477 25.3587 19.3912ZM33.3337 19.7523V19.4773H31.2968V19.184H33.2585V18.7898H31.2968V18.4745H33.2952L33.2988 18.1812V18.1133H30.4242V19.9192H33.3355V19.8513L33.3337 19.7523ZM11 19.8495V19.2097H12.5162V19.9173H13.3888V18.1133H12.5162V18.788H11V18.1133H10.1255V19.9192H11V19.8495ZM29.4507 19.7505V19.4462H27.4688V18.1133H26.5962V19.9192H29.4507V19.8513V19.7505ZM4.28999 22H4.05715C3.97371 22.0166 3.89527 22.0524 3.82799 22.1045C3.90584 22.0552 3.9923 22.021 4.08282 22.0037L4.28999 22Z" fill="#0F0F0F"/>
</svg>
