<svg width="44" height="44" viewBox="0 0 44 44" fill="none" xmlns="http://www.w3.org/2000/svg">
<path d="M22.1686 29.0987C23.936 29.0987 25.7015 29.0235 27.456 28.9153C29.2828 28.9329 31.0975 28.6173 32.8111 27.984C33.598 27.6512 34.2762 27.1051 34.7691 26.4073C35.2497 25.6456 35.5928 24.8054 35.783 23.925C36.2237 22.0466 36.4931 20.1321 36.5878 18.205C36.7423 16.2595 36.7772 14.3064 36.6923 12.3567C36.7596 10.6261 36.1917 8.93076 35.0955 7.59001C33.8778 6.58347 32.3638 6.00388 30.7853 5.94001C27.9271 5.58576 25.0486 5.42162 22.1686 5.44867C19.2887 5.42162 16.4102 5.58576 13.552 5.94001C11.9735 6.00388 10.4594 6.58347 9.2418 7.59001C8.14561 8.93076 7.57765 10.6261 7.64497 12.3567C7.56005 14.3064 7.59495 16.2595 7.74947 18.205C7.84421 20.1321 8.11359 22.0466 8.5543 23.925C8.74528 24.8028 9.0884 25.6405 9.56813 26.4C10.0611 27.0978 10.7393 27.6439 11.5261 27.9767C13.2398 28.6099 15.0545 28.9255 16.8813 28.908C18.6376 29.0241 20.4001 29.0877 22.1686 29.0987ZM26.1213 27.6008C25.938 27.632 25.344 27.632 24.6821 27.6467C23.8437 27.665 23.0059 27.6723 22.1686 27.6687C21.3308 27.6668 20.4948 27.6687 19.6551 27.6467C18.9933 27.632 18.3938 27.632 18.2141 27.6008C18.0345 27.5697 17.8475 27.5587 17.9061 27.3607C17.9648 27.1627 18.7641 24.5667 18.7641 24.5667C19.2921 22.8415 19.3288 22.7333 20.6855 22.462C21.6644 22.265 22.6728 22.265 23.6518 22.462C25.0085 22.7278 25.0451 22.8415 25.5731 24.5667C25.5731 24.5667 26.378 27.1608 26.4311 27.3607C26.4843 27.5605 26.301 27.5697 26.1213 27.6008ZM29.7275 26.3523C30.0355 23.9201 30.2799 21.483 30.4608 19.041L30.5011 18.634C30.902 14.953 31.096 11.2524 31.0823 7.54967C31.1084 7.50591 31.1455 7.46971 31.1898 7.44464C31.2342 7.41956 31.2843 7.40648 31.3353 7.40667C31.6616 7.50201 31.999 7.59001 32.3271 7.71834L32.4701 7.77517H32.483C32.6801 7.85622 32.8723 7.94865 33.0586 8.05201C33.2499 8.16233 33.4272 8.29529 33.5866 8.44801L33.5958 8.45901C33.662 8.52335 33.7233 8.5926 33.7791 8.66617L33.847 8.75051C34.7256 10.4516 35.0749 12.3767 34.8498 14.278C34.8906 16.5652 34.76 18.8523 34.4593 21.12L34.3823 21.7122V21.7397L34.3181 22.2218L34.287 22.4327L34.2521 22.6673L34.1935 23.012L34.1495 23.243L34.1091 23.4355C34.0703 23.6267 34.0238 23.8163 33.9698 24.0038C33.9502 24.0772 33.9282 24.1487 33.9038 24.2183C33.88 24.2898 33.8488 24.387 33.8195 24.4677C33.7901 24.5483 33.7681 24.6088 33.7388 24.6767C33.6978 24.7826 33.6519 24.8866 33.6013 24.9883C33.4436 25.3286 33.2346 25.6427 32.9816 25.9197C32.5966 26.334 29.6963 28.0262 29.6816 26.851C29.6853 26.7496 29.7006 26.5833 29.7275 26.3523ZM11.3666 25.9252C11.1137 25.6482 10.9047 25.3342 10.747 24.9938C10.6662 24.8208 10.5922 24.6447 10.5251 24.4658L10.4445 24.2257C10.4188 24.1432 10.3986 24.0808 10.3785 24.0075L10.3216 23.7967C10.2923 23.6793 10.2642 23.5571 10.2373 23.43L10.1988 23.2467L10.153 23.0138L10.0961 22.6673L10.0613 22.4382L10.0301 22.2163L9.9733 21.7947L9.9568 21.67L9.8853 21.12C9.58457 18.8523 9.45404 16.5652 9.4948 14.278C9.27029 12.3769 9.61886 10.4521 10.4958 8.75051L10.56 8.67167C10.6158 8.5981 10.6771 8.52885 10.7433 8.46451L10.7543 8.45351C10.9131 8.30424 11.0891 8.17438 11.2786 8.06667C11.4667 7.96188 11.6608 7.86822 11.8598 7.78617L12.0083 7.72934C12.3346 7.60834 12.672 7.51301 12.9983 7.41767C13.0493 7.41748 13.0994 7.43056 13.1438 7.45564C13.1881 7.48071 13.2252 7.51691 13.2513 7.56067C13.2376 11.2634 13.4316 14.964 13.8325 18.645L13.8728 19.052C14.0561 21.4903 14.2926 23.9232 14.6061 26.3523L14.6611 26.8712C14.6428 28.0298 11.7443 26.3395 11.3666 25.9252ZM15.917 7.06934C17.991 6.82016 20.0804 6.72151 22.1686 6.77417C24.2569 6.72151 26.3463 6.82016 28.4203 7.06934C28.5248 7.11151 28.534 7.18851 28.4845 7.37001C27.8648 9.62501 27.1498 12.617 26.5118 14.8867C26.0021 16.698 25.4118 19.0337 23.2118 19.2647C22.8678 19.3036 22.5221 19.3262 22.176 19.3325C21.8221 19.338 21.4701 19.2995 21.1401 19.2647C18.9273 19.0337 18.3425 16.698 17.8401 14.8867C17.2021 12.6207 16.4871 9.62867 15.8675 7.37001C15.8015 7.18851 15.8125 7.11151 15.917 7.06934ZM22.9881 32.5398L23.5675 32.6113C23.771 32.637 23.8186 32.8075 23.8186 33.0037V35.0588L21.6186 32.164C21.5816 32.107 21.5307 32.0604 21.4708 32.0283C21.4108 31.9963 21.3438 31.9799 21.2758 31.9807H18.3425V32.5435L18.8925 32.6077C19.0886 32.637 19.1601 32.7378 19.1601 33.0092V35.112C19.1601 35.3613 19.0923 35.4787 18.8833 35.5117L18.3333 35.5758V36.1258H20.9898V35.5758L20.4196 35.5117C20.3425 35.4973 20.2737 35.4545 20.2268 35.3916C20.1799 35.3287 20.1584 35.2505 20.1666 35.1725V33.0605L22.3776 35.9718C22.419 36.0229 22.4712 36.0641 22.5305 36.0923C22.5899 36.1205 22.6548 36.1351 22.7205 36.135H24.8068V32.9872C24.8068 32.8405 24.8453 32.637 25.0598 32.6205L25.6391 32.5563V31.9935H22.9808L22.9881 32.5398ZM14.7803 31.8212C12.4318 31.8212 11.3795 32.7378 11.3795 34.0395C11.3795 35.376 12.4318 36.2817 14.7803 36.2817C17.1288 36.2817 18.1646 35.376 18.1646 34.0395C18.1646 32.7342 17.1123 31.8212 14.7803 31.8212ZM14.7803 35.4878C13.8343 35.4878 13.2971 35.1377 13.2971 34.045C13.2971 32.9523 13.8343 32.6187 14.7803 32.6187C15.7263 32.6187 16.2653 32.9688 16.2653 34.045C16.2653 35.1212 15.7171 35.4897 14.7711 35.4897L14.7803 35.4878ZM7.8833 32.5398L8.46264 32.6113C8.6588 32.637 8.71564 32.7947 8.71564 32.9963V33.6398H6.14897V32.9872C6.14897 32.7433 6.24613 32.6205 6.41847 32.6205L6.97947 32.5563V31.9935H3.66663V32.5563L4.21663 32.6205C4.43663 32.6462 4.49347 32.8038 4.48614 33.022V35.1248C4.48614 35.3613 4.42014 35.4915 4.2093 35.5245L3.6593 35.5887V36.1387H6.9923V35.5887L6.41664 35.5153C6.28647 35.4988 6.1563 35.4163 6.1563 35.1487V34.4667H8.72297V35.1047C8.72297 35.288 8.68997 35.4713 8.46997 35.4952L7.8833 35.5667V36.1368H11.2163V35.5667L10.6296 35.5007C10.516 35.4842 10.3858 35.3943 10.3858 35.1578V33C10.3858 32.7782 10.4665 32.6333 10.637 32.615L11.2163 32.5508V31.988H7.8833V32.5398ZM30.1015 31.9843H25.9893V32.5472L26.5045 32.6003C26.5456 32.6055 26.5852 32.6188 26.6211 32.6395C26.657 32.6602 26.6884 32.6878 26.7134 32.7207C26.7385 32.7537 26.7568 32.7913 26.7672 32.8314C26.7776 32.8714 26.7799 32.9132 26.774 32.9542V35.189C26.7837 35.2633 26.7646 35.3385 26.7206 35.3992C26.6767 35.4599 26.6111 35.5014 26.5375 35.5153L25.9875 35.5868V36.1368H30.1015C31.9935 36.1368 32.8075 35.2202 32.8075 34.001C32.8166 32.9065 31.9935 31.9843 30.1015 31.9843ZM29.4653 35.3357H28.4056V32.769H29.4653C30.4773 32.769 30.9008 33.0073 30.9008 34.0523C30.9008 35.0973 30.4773 35.3357 29.4653 35.3357ZM39.7466 35.4988C39.5633 35.475 39.446 35.2953 39.2975 35.0662L37.4311 32.2135C37.3936 32.1481 37.3405 32.0929 37.2765 32.053C37.2126 32.013 37.1397 31.9894 37.0645 31.9843H33.8671V32.5472L34.6005 32.6333C34.6396 32.6372 34.6769 32.6517 34.7084 32.6752C34.74 32.6987 34.7645 32.7303 34.7794 32.7667C34.7943 32.803 34.799 32.8428 34.793 32.8817C34.787 32.9205 34.7705 32.957 34.7453 32.9872L33.3428 35.2697C33.3156 35.3316 33.274 35.3861 33.2213 35.4285C33.1687 35.4709 33.1066 35.5001 33.0403 35.5135L32.4793 35.5777V36.1277H35.1358V35.5667L34.6793 35.5098C34.496 35.4842 34.3695 35.3705 34.496 35.1743L34.6921 34.8572H37.2441L37.4146 35.1175C37.598 35.387 37.4146 35.4842 37.1946 35.5098L36.7381 35.5667V36.1295H40.3333V35.5667L39.7466 35.4988ZM35.1486 34.1293L35.948 32.846L36.762 34.1293H35.1486Z" fill="#0F0F0F"/>
</svg>
