<svg width="44" height="44" viewBox="0 0 44 44" fill="none" xmlns="http://www.w3.org/2000/svg">
<path d="M22 4.82535C18.6032 4.82535 15.2826 5.83262 12.4583 7.7198C9.6339 9.60698 7.43258 12.2893 6.13267 15.4276C4.83276 18.5658 4.49264 22.0191 5.15533 25.3506C5.81802 28.6822 7.45375 31.7424 9.85567 34.1443C12.2576 36.5463 15.3178 38.182 18.6494 38.8447C21.9809 39.5074 25.4342 39.1673 28.5725 37.8673C31.7107 36.5674 34.393 34.3661 36.2802 31.5418C38.1674 28.7174 39.1747 25.3968 39.1747 22C39.1688 17.4468 37.3575 13.0817 34.1379 9.86212C30.9183 6.64251 26.5532 4.83117 22 4.82535ZM8.71566 14.3715C10.0051 12.1476 11.8302 10.2814 14.0248 8.94267C16.2194 7.60394 18.7139 6.83519 21.2813 6.70635L19.228 20.3133L8.37283 29.0858C7.19369 26.8006 6.60702 24.256 6.6666 21.6852C6.72618 19.1144 7.43009 16.5997 8.71383 14.3715H8.71566ZM35.2678 14.3458C36.5485 16.5604 37.2574 19.0591 37.3304 21.6162C37.4033 24.1733 36.8381 26.7084 35.6858 28.9923L24.7115 20.4985L22.7535 6.71001C25.3089 6.84578 27.7905 7.61469 29.9749 8.94758C32.1594 10.2805 33.9783 12.1355 35.2678 14.3458ZM34.9617 30.2775C33.577 32.4465 31.671 34.2339 29.4177 35.4765C27.1643 36.7191 24.6355 37.3773 22.0623 37.3909H21.9835C19.4211 37.384 16.9011 36.7371 14.6522 35.5089C12.4034 34.2808 10.497 32.5102 9.10616 30.3582L22 25.0213L34.9617 30.2775Z" fill="#0F0F0F"/>
</svg>
