<svg width="44" height="44" viewBox="0 0 44 44" fill="none" xmlns="http://www.w3.org/2000/svg">
<path d="M26.5907 29.3553L25.3459 32.142L25.4852 32.1292C25.5305 32.1267 25.5794 32.131 25.6319 32.142C25.7437 31.7754 25.8886 31.4087 26.0279 31.0659H27.0417C27.2012 31.4325 27.3442 31.8102 27.4634 32.142C27.5276 32.142 27.5954 32.1292 27.6706 32.1292C27.7404 32.1295 27.8102 32.1338 27.8796 32.142L26.6824 29.3553H26.5907ZM26.1031 30.8953L26.5376 29.8779L26.9812 30.8972L26.1031 30.8953ZM32.6682 29.4159V32.142C32.7251 32.142 32.7838 32.1292 32.8516 32.1292C32.913 32.1273 32.9744 32.1316 33.0349 32.142V29.4159C32.9707 29.4159 32.9139 29.4269 32.8516 29.4269C32.7892 29.4269 32.7251 29.4177 32.6682 29.4159ZM24.8399 29.4159H24.7537C24.3522 30.129 23.9856 30.822 23.6042 31.504C23.2028 30.8211 22.8262 30.124 22.4749 29.414H22.3722C22.2597 30.3254 22.132 31.2349 21.9891 32.142L22.1321 32.1292C22.1773 32.1292 22.2237 32.1335 22.2714 32.142C22.2714 31.6507 22.3814 30.8587 22.4676 30.085C22.7389 30.6039 23.0176 31.1208 23.2742 31.647L23.4942 32.098H23.5309C23.7711 31.548 24.1139 30.91 24.5777 30.0814C24.6327 30.4755 24.7134 31.3354 24.7812 32.1384C24.8417 32.1384 24.9041 32.1255 24.9646 32.1255C25.026 32.1236 25.0874 32.1279 25.1479 32.1384C25.025 31.2315 24.9168 30.3226 24.8234 29.4122L24.8399 29.4159ZM30.1639 29.4159C30.1639 29.458 30.1749 29.4947 30.1749 29.535C30.1774 29.5741 30.1737 29.6138 30.1639 29.6542C30.4548 29.6212 30.7463 29.6053 31.0384 29.6065V32.1494C31.0934 32.1494 31.1539 32.1365 31.2126 32.1365C31.274 32.1346 31.3354 32.1389 31.3959 32.1494V29.6065C31.6746 29.6041 31.952 29.62 32.2282 29.6542C32.2282 29.6138 32.2172 29.5735 32.2172 29.535C32.216 29.4971 32.2197 29.4574 32.2282 29.4159H30.1639ZM20.1172 29.4159V31.4674H20.0769L18.1812 29.414H18.0309V32.142C18.0678 32.1349 18.1052 32.1306 18.1427 32.1292C18.1794 32.1292 18.2167 32.1335 18.2546 32.142V29.9915H18.2949L20.0182 31.8982C20.0916 31.9764 20.1606 32.0577 20.2254 32.142H20.3464V29.4159C20.3061 29.4159 20.2694 29.4269 20.2364 29.4269C20.1997 29.4269 20.1539 29.4177 20.1172 29.4159ZM29.8926 31.8175L29.0694 30.778C29.4727 30.7047 29.8889 30.4829 29.8889 30.0209C29.8889 29.6175 29.6176 29.4159 29.0016 29.4159H28.1582V32.142C28.2191 32.1347 28.2803 32.1304 28.3416 32.1292C28.3966 32.1292 28.4516 32.1292 28.5249 32.142L28.5304 30.9394L28.6642 30.811L28.9832 31.1777L29.4544 31.7863C29.54 31.9012 29.6237 32.0174 29.7056 32.1347C29.7789 32.1347 29.8577 32.1219 29.9329 32.1219C30.0062 32.1194 30.0839 32.1237 30.1657 32.1347L30.0906 32.0339L29.8926 31.8175ZM28.5176 30.7872L28.5084 29.5588C28.704 29.5405 28.8995 29.5405 29.0951 29.5588C29.3554 29.5735 29.5534 29.799 29.5351 30.0612C29.5318 30.2017 29.4782 30.3364 29.3839 30.4407C29.2897 30.545 29.1612 30.612 29.0217 30.6295C28.8531 30.6607 28.6881 30.7982 28.5157 30.7872M9.33358 29.3553L8.08691 32.142L8.22625 32.1292L8.37475 32.142C8.48658 31.7754 8.63141 31.4087 8.77075 31.0659H9.77908C9.94041 31.4325 10.0834 31.8102 10.2007 32.142C10.2667 32.142 10.3346 32.1292 10.4097 32.1292C10.4849 32.1292 10.5436 32.1292 10.6187 32.142L9.42158 29.3553H9.33358ZM8.84591 30.8953L9.28041 29.8779L9.72408 30.8972L8.84591 30.8953ZM11.1651 29.9915C11.1657 29.9274 11.1794 29.8641 11.2053 29.8054C11.2313 29.7468 11.2689 29.694 11.3159 29.6504C11.3629 29.6069 11.4184 29.5733 11.4788 29.5519C11.5393 29.5305 11.6034 29.5216 11.6674 29.5259C11.776 29.5238 11.8824 29.5563 11.9713 29.6186C12.0602 29.6808 12.1271 29.7697 12.1624 29.8724H12.2027C12.2296 29.7611 12.2651 29.6523 12.3091 29.546C12.1454 29.4232 11.9453 29.3586 11.7407 29.3627C11.631 29.3476 11.5193 29.356 11.4131 29.3874C11.3068 29.4188 11.2085 29.4724 11.1246 29.5447C11.0407 29.617 10.9731 29.7064 10.9263 29.8068C10.8796 29.9072 10.8547 30.0164 10.8534 30.1272C10.8534 31.0292 12.1019 30.701 12.1019 31.4435C12.1046 31.518 12.0924 31.5922 12.0661 31.6619C12.0399 31.7315 11.9999 31.7953 11.9487 31.8494C11.8975 31.9035 11.8361 31.9469 11.768 31.977C11.6998 32.007 11.6264 32.0233 11.5519 32.0247C11.4158 32.0244 11.2826 31.9852 11.1679 31.9118C11.0533 31.8385 10.962 31.7339 10.9047 31.6104H10.8607C10.8481 31.731 10.8236 31.8502 10.7874 31.966C10.9707 32.1145 11.1999 32.197 11.4364 32.197C11.5625 32.2066 11.6893 32.19 11.8086 32.1483C11.928 32.1066 12.0375 32.0406 12.1301 31.9545C12.2228 31.8684 12.2966 31.764 12.3469 31.648C12.3973 31.532 12.4231 31.4068 12.4227 31.2804C12.4227 30.4315 11.1651 30.7267 11.1651 29.9915ZM16.0912 29.3553C15.899 29.3439 15.7064 29.3724 15.5257 29.4392C15.345 29.5059 15.1801 29.6094 15.0414 29.7431C14.9027 29.8768 14.7932 30.0378 14.7199 30.2159C14.6466 30.394 14.611 30.5854 14.6154 30.778C14.607 30.9704 14.6396 31.1624 14.711 31.3412C14.7825 31.52 14.8912 31.6815 15.03 31.8151C15.1687 31.9486 15.3343 32.0511 15.5157 32.1157C15.6971 32.1802 15.8902 32.2055 16.0821 32.1897C16.2808 32.2037 16.4803 32.1757 16.6676 32.1077C16.8548 32.0397 17.0257 31.9331 17.1692 31.7948C17.3126 31.6566 17.4254 31.4897 17.5003 31.3051C17.5752 31.1204 17.6104 30.9221 17.6037 30.723C17.6054 30.5304 17.5662 30.3396 17.4888 30.1632C17.4114 29.9867 17.2975 29.8287 17.1546 29.6995C17.0117 29.5703 16.8431 29.4728 16.6598 29.4135C16.4765 29.3542 16.2828 29.3344 16.0912 29.3553ZM16.0912 32.0577C15.9359 32.0573 15.7824 32.0239 15.6409 31.9599C15.4994 31.8959 15.373 31.8026 15.2701 31.6862C15.1672 31.5698 15.0902 31.433 15.044 31.2846C14.9978 31.1363 14.9836 30.9799 15.0022 30.8257C15.0022 30.0172 15.4257 29.4874 16.1279 29.4874C16.2863 29.4856 16.443 29.5193 16.5867 29.5859C16.7304 29.6525 16.8574 29.7504 16.9584 29.8724C17.144 30.1259 17.233 30.4372 17.2096 30.7505C17.2229 30.9097 17.2045 31.0699 17.1556 31.2219C17.1066 31.3739 17.0281 31.5147 16.9245 31.6362C16.8209 31.7578 16.6942 31.8576 16.5518 31.9299C16.4094 32.0022 16.2542 32.0457 16.0949 32.0577H16.0912ZM35.7868 29.4269C35.7464 29.4269 35.7097 29.4177 35.6767 29.4159V31.4674H35.6291L33.7334 29.414H33.5776V32.142C33.6145 32.1349 33.6519 32.1306 33.6894 32.1292C33.7261 32.1292 33.7634 32.1335 33.8012 32.142V29.9915H33.8397L35.5649 31.8982C35.6382 31.9764 35.7073 32.0577 35.7721 32.142H35.8931V29.4159C35.8582 29.4159 35.8216 29.4269 35.7868 29.4269ZM14.6612 29.6579C14.6612 29.6175 14.6484 29.5772 14.6484 29.5387C14.646 29.5008 14.6502 29.4611 14.6612 29.4195H12.6042C12.6042 29.4617 12.6152 29.4984 12.6152 29.5387C12.6177 29.5778 12.614 29.6175 12.6042 29.6579C12.8951 29.6249 13.1866 29.609 13.4787 29.6102V32.153C13.5337 32.153 13.5924 32.1402 13.6529 32.1402C13.7134 32.1402 13.7647 32.1402 13.8362 32.153V29.6047C14.1125 29.6047 14.3862 29.6224 14.6612 29.6579ZM26.7447 20.1245V18.8412C26.8804 18.8412 27.0155 18.8491 27.1499 18.865H27.1646V18.7184H26.0976V18.865H26.1104C26.2522 18.8467 26.3946 18.8387 26.5376 18.8412V20.1245H26.7447ZM19.9706 18.7165V20.1099H20.1081V19.0245L20.9716 19.9779L21.0779 20.1044H21.1586V18.7092H21.0211V19.7579L20.0677 18.7257L19.9706 18.7165ZM25.9894 19.0337C25.9906 18.821 25.8379 18.7153 25.5311 18.7165H25.0929V20.1099H25.2946V19.4425H25.3532L25.5091 19.6259L25.7474 19.932L25.8757 20.1154H26.1397L25.5897 19.426C25.8391 19.371 25.9894 19.228 25.9894 19.0337ZM25.5384 19.3307C25.458 19.3452 25.376 19.3489 25.2946 19.3417V18.8155C25.3879 18.8084 25.4817 18.8084 25.5751 18.8155C25.6048 18.8167 25.634 18.8238 25.6609 18.8365C25.6877 18.8493 25.7118 18.8673 25.7315 18.8896C25.7512 18.9119 25.7662 18.9379 25.7755 18.9661C25.7849 18.9944 25.7884 19.0242 25.7859 19.0539C25.7865 19.1209 25.7626 19.1858 25.7187 19.2364C25.6749 19.287 25.614 19.3199 25.5476 19.3289L25.5384 19.3307ZM23.8371 20.1044C23.8896 19.932 23.9507 19.764 24.0204 19.6002L24.0314 19.5709H24.5264C24.601 19.7456 24.6694 19.9229 24.7317 20.1025H24.9701L24.3577 18.6799H24.2936L23.6574 20.1044H23.8297H23.8371ZM24.2807 18.9915L24.4842 19.4627H24.0809C24.0937 19.4297 24.2624 19.0392 24.2807 18.9915ZM18.9806 18.6872C18.8816 18.6813 18.7826 18.6961 18.6896 18.7305C18.5967 18.765 18.5119 18.8184 18.4407 18.8873C18.3695 18.9563 18.3134 19.0393 18.276 19.1311C18.2386 19.2229 18.2207 19.3214 18.2234 19.4205C18.2197 19.5188 18.2369 19.6168 18.2738 19.7079C18.3107 19.7991 18.3665 19.8814 18.4375 19.9495C18.5085 20.0176 18.5931 20.0698 18.6858 20.1028C18.7784 20.1358 18.877 20.1489 18.9751 20.141C19.0766 20.1472 19.1783 20.1321 19.2736 20.0969C19.369 20.0616 19.456 20.0069 19.5291 19.9362C19.6022 19.8655 19.6598 19.7804 19.6983 19.6863C19.7367 19.5921 19.7551 19.491 19.7524 19.3894C19.7532 19.2911 19.7332 19.1937 19.6939 19.1036C19.6545 19.0136 19.5966 18.9328 19.524 18.8666C19.4514 18.8003 19.3656 18.7501 19.2723 18.7192C19.179 18.6883 19.0802 18.6774 18.9824 18.6872M19.5324 19.4297C19.5261 19.5991 19.4613 19.761 19.3491 19.888C19.3023 19.9383 19.2455 19.9783 19.1823 20.0054C19.1192 20.0326 19.0511 20.0463 18.9824 20.0457C18.9059 20.0458 18.8302 20.0295 18.7603 19.9981C18.6905 19.9666 18.6282 19.9207 18.5776 19.8633C18.5269 19.8058 18.4891 19.7383 18.4666 19.6651C18.4441 19.5919 18.4374 19.5148 18.4471 19.4389C18.4471 19.03 18.6597 18.777 18.9971 18.777C19.0743 18.7772 19.1506 18.7936 19.221 18.8252C19.2915 18.8568 19.3545 18.9028 19.4059 18.9604C19.4976 19.085 19.5416 19.239 19.5287 19.3949L19.5324 19.4297ZM22.1284 20.1007C22.1394 19.8318 22.1639 19.5647 22.2017 19.2995L22.2219 19.107C22.2457 19.1529 22.5079 19.657 22.6087 19.8569L22.7224 20.0897H22.7609C22.8764 19.822 23.0414 19.5159 23.2669 19.1125C23.2999 19.3509 23.3421 19.833 23.3659 20.108V20.119H23.5804V20.1062C23.5327 19.767 23.4796 19.3179 23.4172 18.7349V18.7239H23.3512L23.0139 19.3362L22.7811 19.7615C22.5822 19.426 22.3986 19.0816 22.2311 18.7294H22.1614V18.7404C22.1431 18.9457 22.0221 19.7854 21.9689 20.1117V20.1245H22.1376L22.1284 20.1007ZM16.6834 20.0255C16.6169 20.0252 16.5519 20.0059 16.496 19.9699C16.4401 19.9338 16.3957 19.8825 16.3681 19.822H16.3259L16.2837 20.0164C16.3798 20.0926 16.4985 20.1345 16.6211 20.1355C16.6859 20.1411 16.7512 20.1331 16.8128 20.1121C16.8744 20.091 16.9309 20.0573 16.9787 20.0131C17.0265 19.9689 17.0646 19.9152 17.0905 19.8555C17.1163 19.7958 17.1294 19.7313 17.1289 19.6662C17.1289 19.437 16.9547 19.3692 16.7879 19.2995C16.6229 19.2299 16.4964 19.1859 16.4964 19.0154C16.496 18.9845 16.5021 18.954 16.5143 18.9257C16.5265 18.8973 16.5445 18.8719 16.5671 18.851C16.5898 18.8301 16.6166 18.8141 16.6457 18.8042C16.6749 18.7943 16.7059 18.7907 16.7366 18.7935C16.7889 18.791 16.8406 18.8058 16.8837 18.8356C16.9268 18.8654 16.9589 18.9086 16.9749 18.9585H17.0134L17.0721 18.7752C16.9885 18.7098 16.8848 18.6755 16.7787 18.678C16.4982 18.678 16.3204 18.832 16.3204 19.074C16.3204 19.316 16.5037 19.3912 16.6632 19.4554C16.8246 19.5195 16.9456 19.5654 16.9456 19.7359C16.9483 19.7724 16.9436 19.8092 16.9316 19.8439C16.9197 19.8786 16.9007 19.9105 16.876 19.9376C16.8513 19.9647 16.8213 19.9865 16.7879 20.0016C16.7544 20.0167 16.7183 20.0249 16.6816 20.0255M27.3333 18.7165H27.5221V20.1099H27.3314L27.3333 18.7165ZM17.2096 18.7165V18.8632H17.2224C17.3642 18.8449 17.5066 18.8369 17.6496 18.8394V20.1227H17.8512V18.8394C17.9857 18.8394 18.1201 18.8479 18.2546 18.865H18.2674V18.7184L17.2096 18.7165ZM27.9584 19.0245L28.8219 19.9779L28.9282 20.1044H29.0071V18.7092H28.8696V19.7579L27.9162 18.7257H27.8191V20.119H27.9566L27.9584 19.0245ZM15.2589 19.6039L15.2717 19.5709H15.7667C15.8413 19.7456 15.9104 19.9229 15.9739 20.1025H16.2122L15.5981 18.6799H15.5376L14.9014 20.1044H15.0737C15.1273 19.9346 15.1891 19.7676 15.2589 19.6039ZM15.5211 18.9915C15.5412 19.0392 15.7044 19.4297 15.7246 19.4627H15.3212L15.5211 18.9915ZM29.3096 23.6152C29.2254 23.5799 29.146 23.5344 29.0731 23.4795L27.4432 22.3135C27.134 22.4969 26.8162 22.6619 26.4899 22.8085L27.3937 23.7509C27.4744 23.8352 27.7274 24.0387 27.9327 23.991L28.1784 23.9232L29.3096 23.6152ZM30.3014 19.8972L34.8847 20.8395C35.1879 20.908 35.4934 20.9226 35.8014 20.8835L37.2937 20.4454L30.5911 19.5452C30.4982 19.6613 30.4016 19.7786 30.3014 19.8972ZM35.0846 21.0925C34.9507 21.0742 34.8536 21.054 34.8426 21.0522L30.1382 20.0842C29.9965 20.2419 29.8516 20.3959 29.7037 20.5462L32.7746 21.494C33.0157 21.573 33.2725 21.5919 33.5226 21.549L35.0846 21.0925ZM32.8644 21.7434L32.7122 21.703L29.5296 20.7167C29.3022 20.9367 29.0657 21.1481 28.8201 21.351L30.4847 22.1302C30.6827 22.2347 30.9064 22.2769 31.1301 22.2512L32.8644 21.7434ZM31.1521 18.777L38.1187 19.2409C38.3143 19.269 38.5099 19.269 38.7054 19.2409C38.7688 19.2209 38.8273 19.1879 38.8772 19.1441C38.9271 19.1002 38.9672 19.0463 38.9951 18.986L39.2811 18.4837L39.3416 18.3957H31.4032C31.3262 18.5167 31.2425 18.6438 31.1521 18.777ZM40.3132 17.3379C40.2868 17.3014 40.2511 17.2725 40.2099 17.2541C40.1687 17.2358 40.1234 17.2286 40.0786 17.2334H32.5766C32.4103 17.2493 32.2503 17.305 32.1099 17.3956C31.9696 17.4862 31.853 17.6091 31.7699 17.754C31.6966 17.8958 31.6178 18.0351 31.5334 18.172H39.7229C39.9301 18.1574 39.9612 18.1207 40.0107 18.0382L40.2803 17.6C40.3145 17.5449 40.3335 17.4816 40.3352 17.4167C40.334 17.3891 40.3264 17.3621 40.3132 17.3379ZM29.7936 23.4667C30.4462 23.221 30.5434 22.9754 30.6369 22.7334C30.6708 22.6336 30.7259 22.5423 30.7982 22.4657C30.6564 22.4362 30.5186 22.3901 30.3876 22.3282L28.6276 21.505C28.3135 21.7507 27.9859 21.9786 27.6449 22.1889L29.2014 23.3035C29.2842 23.369 29.3792 23.4171 29.481 23.4451C29.5827 23.4732 29.689 23.4805 29.7936 23.4667ZM31.0017 18.9934C30.917 19.1128 30.8302 19.2307 30.7414 19.3472L37.4147 20.2419C37.6696 20.2767 37.7484 20.1905 37.7631 20.1722L38.0931 19.5874C38.1162 19.5464 38.1432 19.5077 38.1737 19.4719H38.0894L31.0017 18.9934ZM25.1974 20.7167H24.4732L26.3286 22.649C26.6415 22.5097 26.947 22.3551 27.2452 22.1852L25.1974 20.7167ZM22.7847 20.7167L23.5382 23.4337C23.9538 23.3787 24.3639 23.298 24.7684 23.1917L23.3017 20.7167H22.7829H22.7847ZM26.1141 22.7334L24.1726 20.7167H23.5566L24.9847 23.1349C25.3697 23.0236 25.7462 22.8898 26.1141 22.7334ZM28.4058 21.4024L26.9189 20.7075H25.5714L27.4524 22.055C27.7824 21.8534 28.1002 21.6358 28.4058 21.4024ZM23.8334 24.9847C23.7377 24.8695 23.6694 24.7341 23.6336 24.5887L23.3769 23.672C23.0555 23.7087 22.7285 23.7331 22.3961 23.7454L23.3292 24.6345C23.5804 24.871 23.6391 24.9334 23.8334 24.9847ZM24.0919 24.9205C24.1362 24.9469 24.1855 24.9636 24.2367 24.9696C24.2879 24.9756 24.3397 24.9707 24.3889 24.9554L25.6851 24.6034C25.5716 24.5058 25.476 24.3892 25.4027 24.2587L24.8821 23.3787C24.4592 23.4887 24.0314 23.5749 23.5987 23.6372L23.8499 24.541C23.8836 24.692 23.9693 24.8263 24.0919 24.9205ZM26.0206 24.5117L27.5001 24.1065C27.4016 24.0503 27.3109 23.9812 27.2306 23.9012L26.2717 22.9002C25.888 23.0652 25.4962 23.2045 25.0966 23.3182L25.5879 24.1505C25.6502 24.2569 25.8501 24.5392 26.0206 24.5117ZM28.6001 21.252C28.6147 21.241 29.0456 20.8854 29.2289 20.702H27.4341L28.6001 21.252ZM22.1082 20.7167V23.5345C22.5128 23.5309 22.9167 23.5064 23.3201 23.4612L22.5592 20.7112L22.1082 20.7167ZM14.3257 19.767V19.4224L13.6639 19.5122C13.7544 19.6246 13.8479 19.7359 13.9444 19.8459L14.3257 19.767ZM14.3257 19.9834L14.1112 20.0274C14.1809 20.1044 14.2524 20.1807 14.3257 20.2565V19.9834ZM14.3257 18.3939H12.8591C12.9373 18.5161 13.0186 18.6383 13.1029 18.7605L14.3257 18.6799V18.3939ZM14.3257 19.2042V18.9054L13.2551 18.9769C13.3382 19.0905 13.4225 19.203 13.5081 19.3142L14.3257 19.2042ZM12.2321 17.7577C12.1479 17.6137 12.031 17.4916 11.8909 17.4011C11.7507 17.3107 11.5913 17.2545 11.4254 17.237H3.92341C3.74008 17.237 3.67225 17.3195 3.66675 17.4204C3.66797 17.4851 3.68632 17.5483 3.71991 17.6037L3.98941 18.051C4.04991 18.15 4.09025 18.172 4.28275 18.1867H12.4667L12.2321 17.7577ZM13.0002 18.9934L5.82641 19.4719C5.85697 19.5073 5.88264 19.5452 5.90341 19.5855L6.23341 20.1667C6.24808 20.1869 6.32875 20.2712 6.58175 20.2364L13.2551 19.3417L13.0002 18.9934ZM12.8499 18.777L12.6006 18.3939H4.66041C4.73741 18.4874 4.89141 18.7844 5.00691 18.9842C5.03497 19.0447 5.07541 19.0986 5.12563 19.1425C5.17584 19.1864 5.2347 19.2193 5.29841 19.239C5.49397 19.2659 5.68953 19.2659 5.88508 19.239L12.8499 18.777ZM31.1429 18.3939H29.6762V18.6799L30.9009 18.7605L31.1429 18.3939ZM31.5774 17.6532C31.6719 17.4917 31.7963 17.3499 31.9441 17.2352H25.0342C24.8829 17.2278 24.7317 17.2508 24.5894 17.3028C24.4471 17.3547 24.3166 17.4346 24.2056 17.5377C24.0554 17.6964 23.9526 17.8939 23.9086 18.1079L23.8847 18.1757H31.2767C31.3819 18.0046 31.4821 17.8304 31.5774 17.6532ZM30.3363 19.5122L29.6726 19.4224V19.767L30.0557 19.8459L30.3363 19.5122ZM9.11358 20.8395L13.6969 19.8954C13.5986 19.7806 13.5026 19.6639 13.4091 19.5452L6.70641 20.4454L8.19875 20.8835C8.50553 20.9202 8.81047 20.9055 9.11358 20.8395ZM12.4227 17.6532C12.4227 17.6532 12.6061 17.9905 12.7234 18.1757H20.1154L20.0916 18.1079C20.048 17.8933 19.9444 17.6956 19.7927 17.5377C19.6832 17.433 19.5532 17.3522 19.4109 17.3001C19.2686 17.248 19.1171 17.2259 18.9659 17.2352H12.0524C12.2027 17.3513 12.3262 17.4906 12.4227 17.6532ZM30.7451 18.9769L29.6726 18.9054V19.2042L30.4921 19.3142C30.5813 19.1993 30.6656 19.0869 30.7451 18.9769ZM29.8834 20.0347L29.6671 19.9907V20.2657C29.7453 20.1899 29.8174 20.1129 29.8834 20.0347ZM15.5944 21.4024C15.9 21.637 16.2177 21.854 16.5477 22.0532L18.4287 20.7075H17.0812L15.5944 21.4024ZM15.4001 21.252L16.5642 20.702H14.7731C14.9546 20.878 15.3854 21.2392 15.4001 21.252ZM14.2047 23.4667C14.3097 23.4815 14.4165 23.475 14.5189 23.4476C14.6213 23.4202 14.7171 23.3725 14.8006 23.3072L16.3534 22.1834C16.0143 21.9734 15.6869 21.7451 15.3726 21.4995L13.6162 22.3209C13.4842 22.3837 13.3451 22.4304 13.2019 22.4602C13.2706 22.5395 13.3252 22.6301 13.3632 22.7279C13.4567 22.9735 13.5539 23.2174 14.2047 23.4667ZM16.6064 23.7509L17.5121 22.8085C17.1858 22.6592 16.867 22.494 16.5569 22.3135L14.9307 23.4795C14.8558 23.5332 14.7753 23.5787 14.6906 23.6152L16.0674 23.991C16.2746 24.0387 16.5257 23.8334 16.6064 23.7509ZM8.91558 21.0925L10.4757 21.5509C10.7258 21.5971 10.9836 21.5775 11.2237 21.494L14.3001 20.5462C14.1526 20.3953 14.0083 20.2413 13.8674 20.0842L9.16675 21.0522C9.08352 21.0685 8.99974 21.082 8.91558 21.0925ZM20.3647 24.5887C20.3284 24.7343 20.2594 24.8697 20.1631 24.9847C20.2826 24.9514 20.3917 24.8883 20.4802 24.8014L21.6022 23.7325C21.2745 23.7206 20.9473 23.6962 20.6214 23.6592L20.3647 24.5887ZM19.1162 23.3805L18.5992 24.2569C18.5256 24.3881 18.4294 24.5054 18.3151 24.6034L19.6112 24.9554C19.7102 24.9847 19.8184 24.9737 19.9082 24.9205C20.0319 24.8261 20.1183 24.6911 20.1521 24.5392L20.4032 23.6372C19.9695 23.5773 19.5398 23.4916 19.1162 23.3805ZM18.4104 24.1487L18.8999 23.32C18.4985 23.207 18.1052 23.0667 17.7229 22.9002L16.7641 23.9012C16.6854 23.9809 16.5967 24.0499 16.5001 24.1065L17.9814 24.5117C18.1501 24.5392 18.3499 24.2569 18.4104 24.1487ZM13.5209 22.132L15.1819 21.3547C14.9377 21.1521 14.701 20.9405 14.4724 20.7204L11.2916 21.7012L11.1357 21.7434L12.8719 22.2549C13.0957 22.2814 13.3223 22.2385 13.5209 22.132ZM21.2154 20.7167H20.6947L19.2281 23.1935C19.6326 23.2974 20.0427 23.3775 20.4583 23.4337L21.2154 20.7167ZM20.4417 20.7167H19.8276L17.8861 22.7334C18.2527 22.8874 18.6286 23.0187 19.0136 23.1275L20.4417 20.7167ZM16.7531 22.1834C17.0513 22.3545 17.3569 22.5091 17.6697 22.6472L19.5269 20.7167H18.8027L16.7531 22.1834ZM20.6801 23.452C21.0834 23.4972 21.4874 23.5217 21.8919 23.5254V20.7167H21.4501L20.6801 23.452ZM28.4846 30.657C28.5029 30.3949 28.6092 30.0539 28.3471 30.0392C28.1527 30.0227 28.5707 30.1822 28.3764 30.1987L28.4516 30.8367C28.6239 30.8513 28.7871 30.7157 28.9576 30.6882C29.2509 30.6515 28.4846 30.657 28.4846 30.657Z" fill="#0F0F0F"/>
</svg>
