<svg width="44" height="44" viewBox="0 0 44 44" fill="none" xmlns="http://www.w3.org/2000/svg">
<path d="M5.1095 17.259H8.96683L8.23717 15.9408H21.3253V17.2553H21.7617V15.4862H3.91417L5.1095 17.259ZM5.47983 18.997H21.758V17.6788H5.269L5.47983 18.997ZM9.614 21.2043H5.83733L5.544 19.4058H21.7617V21.2043H21.3235V19.8275H9.4765L9.614 21.2043ZM15.6622 22.473H21.7598V23.4172H15.6622V22.473ZM22.242 15.4862H28.3965V18.1335H22.242V15.4862ZM6.7155 25.696C6.8145 25.8537 6.99967 26.037 7.61383 26.2112C7.8815 26.279 8.173 26.3468 8.558 26.4348L8.70467 26.4697H15.235V25.5347H6.62933C6.65378 25.5909 6.68189 25.6447 6.71367 25.696H6.7155ZM15.235 24.2678H6.3415L5.90517 21.6278H15.235V24.2678ZM15.6603 27.973C17.9392 28.4368 20.1648 28.8677 21.7635 29.128V24.695H15.6603V27.973ZM38.1663 21.2043H28.8163V18.5552H38.5935L38.1663 21.2043ZM28.8163 16.3277V17.2682L38.8722 17.2645L39.5028 16.3277H28.8163ZM0 13.3943L2.96267 17.7375C3.28717 19.5818 4.136 24.3357 4.23317 24.7958L4.24417 24.8545C4.5155 26.1488 4.68233 26.9427 7.15917 27.555C10.505 28.38 18.1537 29.9805 21.9982 30.6057C25.8427 29.9805 33.495 28.3782 36.8427 27.555C39.3177 26.9427 39.4827 26.1488 39.7558 24.8545L39.7668 24.7958C39.864 24.332 40.7128 19.5818 41.0373 17.7375L44 13.3943H0ZM39.3323 17.6752L38.8245 20.823C38.5312 22.6453 38.335 23.8608 38.2378 24.3998L38.225 24.464L38.203 24.5923C37.9702 25.861 37.8675 26.4293 36.5347 26.8015C33.7553 27.4853 25.7033 29.2032 22.0018 29.7825C18.3022 29.2032 10.2502 27.4835 7.47267 26.8015C6.13983 26.4293 6.03717 25.861 5.80433 24.5905L5.7695 24.3998C5.67233 23.8718 5.4835 22.6948 5.20117 20.9348L4.675 17.6733L2.33933 14.2083H41.6643L39.3323 17.6752ZM22.6783 23.4172H22.242V21.6278H38.1003L37.807 23.4208H34.133C34.1898 23.1073 34.298 22.2127 34.3145 22.0825H22.6783V23.4172ZM22.242 25.1442H37.499L37.7447 23.8315H22.242V25.1442ZM22.242 19.4077H28.3983V20.3537H22.242V19.4077ZM22.242 25.5347V29.1262C26.1195 28.4662 33.6508 26.917 36.3917 26.2075C37.0113 26.048 37.1947 25.8537 37.2937 25.696C37.3264 25.6451 37.3541 25.5911 37.3762 25.5347H22.242ZM26.4513 27.885L25.6905 28.0353C25.3055 28.1123 24.4713 28.2645 23.738 28.4002L22.6802 28.5945V25.9875H33.4602C32.9652 26.5925 31.9715 26.7887 26.4513 27.885Z" fill="#0F0F0F"/>
</svg>
