<svg width="44" height="44" viewBox="0 0 44 44" fill="none" xmlns="http://www.w3.org/2000/svg">
<path d="M40.2253 22.1155L39.9209 22.0183L39.0868 22.0513C38.6267 22.0022 38.1811 21.862 37.7759 21.6388L36.8024 20.9568C35.6939 20.1782 34.5359 19.4727 33.3356 18.8448L31.1154 17.7448C29.61 17.02 28.0814 16.3444 26.5321 15.719L21.6591 13.7848C21.013 13.5189 20.3296 13.3544 19.6332 13.2972L17.8347 13.266C16.9013 13.2374 15.9684 13.3386 15.0627 13.5667L14.2817 13.794C13.9151 13.9022 13.7629 14.0012 13.7739 14.0763L13.8601 14.1405L14.8134 13.871L15.1159 13.838L15.4202 13.8912L15.7117 13.9242C15.7903 13.9189 15.8667 13.8969 15.936 13.8596C16.0052 13.8223 16.0657 13.7705 16.1132 13.7078C16.2416 13.5465 16.505 13.4781 16.9034 13.5025L17.3049 13.5447L16.5716 13.772L15.9867 14.2817C15.805 14.2908 15.6236 14.2575 15.4569 14.1845L15.0022 14.0543L14.7199 14.2065L14.9692 14.4448C15.0743 14.6085 15.1268 14.8005 15.1196 14.9948C15.0243 14.8761 14.9042 14.7797 14.7677 14.7122C14.6312 14.6447 14.4816 14.6079 14.3294 14.6043L13.7996 14.6483L13.4952 14.5182L12.9764 14.9728L12.9434 15.07L13.1029 15.0333L13.4164 14.85L13.1029 15.1745L13.0259 15.3707C13.0161 15.62 13.0919 15.7496 13.2532 15.7593H13.3834C13.373 15.6435 13.3903 15.5268 13.4338 15.419C13.4773 15.3112 13.5459 15.2152 13.6339 15.1391C13.7218 15.063 13.8266 15.0089 13.9395 14.9812C14.0525 14.9536 14.1704 14.9532 14.2836 14.9802C14.401 14.9835 14.5165 15.0112 14.6226 15.0618C14.7286 15.1123 14.823 15.1844 14.8996 15.2735C14.9708 15.3624 15.0237 15.4646 15.0552 15.5741C15.0866 15.6836 15.0961 15.7983 15.0829 15.9115C15.0829 16.0584 15.0338 16.2012 14.9435 16.3171C14.8532 16.433 14.7267 16.5154 14.5842 16.5513L14.5091 16.5953L14.5751 16.6833L14.8024 16.6503C15.0487 16.5802 15.2769 16.4578 15.4715 16.2914C15.6661 16.1249 15.8225 15.9184 15.9299 15.686L16.5789 14.4943L18.3994 15.1782C18.8138 14.9938 19.1973 14.7464 19.5361 14.4448C19.4102 14.7393 19.2462 15.0161 19.0484 15.268L18.5076 15.7227L16.8576 15.0938L16.5752 15.6585L18.1996 16.2745L18.6011 16.4927L18.9806 16.8282L19.5306 16.8483C19.1639 16.4157 18.9989 16.115 19.0099 15.961C19.0674 15.7542 19.1758 15.5651 19.3252 15.411L19.9101 14.641L19.5837 15.9518C19.7412 16.2788 19.9369 16.5859 20.1667 16.8667L21.5949 17.127L22.1156 17.3543L20.8817 17.2792L18.8651 17.3213L17.8036 17.5817L17.3691 18.3498L17.7357 19.0648L18.2454 19.1308L18.7331 18.546L18.4947 18.1555L19.6974 18.0583L21.7764 18.3407H22.5776L23.1092 17.4845L22.1834 15.5503L22.1064 15.2258C22.1064 14.8592 22.2696 14.7052 22.5941 14.7162C22.6715 14.7014 22.7511 14.7034 22.8277 14.722C22.9042 14.7407 22.9759 14.7756 23.0377 14.8243C22.7139 14.8219 22.5519 14.9337 22.5519 15.1598C22.5498 15.2236 22.5643 15.2868 22.5941 15.3432L23.6501 17.3268C24.0879 17.4742 24.5436 17.5617 25.0049 17.5872C25.5097 17.6254 26.0169 17.6217 26.5211 17.5762C26.2122 17.7507 25.867 17.8511 25.5127 17.8695L24.2019 17.9337L23.5199 17.8365L23.1844 18.3865L24.6511 18.6047C25.333 18.632 26.0159 18.6246 26.6971 18.5827L27.9969 18.5057C28.1271 18.5167 28.3636 18.689 28.6899 19.0373L30.1859 20.6727C30.3994 20.9222 30.6558 21.1314 30.9431 21.2905C31.2869 21.4563 31.6616 21.5487 32.0431 21.5618L35.2716 21.7342L36.9381 23.2393L37.9354 23.3163L38.2819 22.979L37.7521 22.4052L37.2314 22.352C37.0554 22.3128 36.8917 22.231 36.7547 22.1137L35.2716 20.7588L34.1441 20.6727C34.0099 20.673 33.8777 20.6407 33.7588 20.5784C33.64 20.5161 33.5381 20.4257 33.4621 20.3152L32.6609 19.3288L31.5994 18.3553C32.5468 18.797 33.3916 19.4314 34.0799 20.218L35.1964 20.2932C35.4478 20.3351 35.6791 20.4566 35.8564 20.6397L37.1673 21.8002C37.3858 21.908 37.6277 21.9597 37.8712 21.9505L38.2178 22.1577L38.7384 22.7535L39.9081 22.6985C40.177 22.6887 40.3212 22.5665 40.3407 22.3318L40.2253 22.1155ZM17.0886 26.4367V27.8447L16.2544 28.0078C15.998 28.0136 15.744 27.9575 15.5138 27.8442C15.2837 27.7309 15.0843 27.5638 14.9326 27.357C14.5827 26.8536 14.411 26.2477 14.4449 25.6355C14.4105 24.985 14.6145 24.3442 15.0187 23.8333C15.2188 23.6158 15.4642 23.445 15.7376 23.3328C16.011 23.2207 16.3058 23.17 16.6009 23.1843C17.1976 23.1836 17.7719 23.412 18.2051 23.8223V22.7223C17.6147 22.5216 16.9953 22.4194 16.3717 22.4198C15.4832 22.3925 14.6195 22.7151 13.9664 23.3182C13.6562 23.6106 13.4118 23.9657 13.2493 24.3599C13.0869 24.754 13.0101 25.1782 13.0241 25.6043C13.0001 26.0309 13.0679 26.4577 13.2229 26.8559C13.3778 27.254 13.6164 27.6144 13.9224 27.9125C14.5813 28.4929 15.4396 28.7953 16.3167 28.7558C17.0238 28.7831 17.7248 28.615 18.3426 28.27V25.7217H16.7732C16.9545 25.9186 17.0654 26.17 17.0886 26.4367ZM5.06375 23.144V27.401C5.08445 27.9543 4.99599 28.5062 4.80341 29.0253C4.5462 29.5316 4.15247 29.9558 3.66675 30.25H5.09675C5.53898 29.8119 5.87967 29.2821 6.09477 28.698C6.30986 28.1138 6.39411 27.4896 6.34158 26.8693V22.5592H4.83641C4.983 22.7186 5.06417 22.9274 5.06375 23.144ZM12.3971 27.8777L10.2319 22.5372H9.42892L7.37191 27.7145C7.24931 28.0666 7.02227 28.3729 6.72108 28.5927H8.41141C8.34531 28.555 8.28918 28.5021 8.24772 28.4383C8.20625 28.3745 8.18066 28.3017 8.17308 28.226L8.24825 27.9327L8.56358 27.0453H10.7086L11.0752 28.0958C11.1184 28.1838 11.1256 28.2852 11.0951 28.3784C11.0646 28.4715 10.9989 28.5491 10.9121 28.5945H12.9067C12.6675 28.4133 12.4896 28.1631 12.3971 27.8777ZM8.82208 26.3395L9.64708 24.3137L10.4042 26.3395H8.82208ZM35.4916 28.0298L34.2357 25.6997C34.5668 25.5939 34.856 25.3863 35.062 25.1064C35.2681 24.8266 35.3806 24.4889 35.3834 24.1413C35.3846 23.0878 34.6336 22.5604 33.1302 22.5592H31.0512C31.1994 22.7176 31.2808 22.9271 31.2786 23.144V28.6H32.8167C32.6539 28.4073 32.5723 28.1588 32.5894 27.907V23.2833L33.0679 23.2503C33.1972 23.2397 33.3273 23.2579 33.4487 23.3036C33.5702 23.3493 33.6799 23.4215 33.7701 23.5148C33.8603 23.6081 33.9286 23.7203 33.9701 23.8432C34.0116 23.9662 34.0253 24.0968 34.0103 24.2257C34.0302 24.393 34.0131 24.5627 33.9602 24.7227C33.9073 24.8827 33.8198 25.0292 33.704 25.1516C33.5882 25.2741 33.4469 25.3695 33.2901 25.4313C33.1333 25.4931 32.9648 25.5196 32.7966 25.509L34.0964 28.2058C34.138 28.3222 34.2142 28.4231 34.3148 28.4949C34.4155 28.5667 34.5357 28.6059 34.6593 28.6073H36.0031C35.7893 28.458 35.6141 28.26 35.4916 28.0298ZM24.6712 22.5592H23.0029C23.1432 22.6638 23.2533 22.8038 23.3219 22.9648C23.3905 23.1258 23.4152 23.3022 23.3934 23.4758V26.5302C23.391 27.4322 22.9827 27.8838 22.1687 27.885C21.9861 27.9118 21.7996 27.8956 21.6244 27.8375C21.4491 27.7795 21.2898 27.6812 21.1592 27.5507C21.0287 27.4201 20.9304 27.2608 20.8724 27.0856C20.8144 26.9103 20.7981 26.7239 20.8249 26.5412V22.5592H19.2336C19.3268 22.6382 19.3998 22.7383 19.4467 22.8511C19.4935 22.964 19.5129 23.0864 19.5031 23.2082V26.2625C19.4599 26.6025 19.4965 26.9479 19.6099 27.2713C19.7232 27.5947 19.9103 27.8874 20.1562 28.126C20.4022 28.3647 20.7003 28.5429 21.027 28.6465C21.3537 28.75 21.7 28.7762 22.0386 28.7228C22.3374 28.74 22.6365 28.696 22.9177 28.5935C23.1989 28.4911 23.4562 28.3323 23.6739 28.127C23.8826 27.9003 24.043 27.6336 24.1454 27.343C24.2479 27.0525 24.2902 26.7441 24.2697 26.4367V23.4795C24.2504 23.3044 24.2773 23.1273 24.3478 22.9658C24.4182 22.8043 24.5298 22.6641 24.6712 22.5592ZM30.1089 27.8777L27.9529 22.5372H27.1334L25.0746 27.7145C24.9525 28.0663 24.7261 28.3727 24.4256 28.5927H26.1361C26.07 28.555 26.0138 28.5021 25.9724 28.4383C25.9309 28.3745 25.9053 28.3017 25.8977 28.226L25.9637 27.9327L26.2662 27.0453H28.4167L28.7962 28.0958C28.8346 28.1845 28.8392 28.2842 28.8091 28.3761C28.779 28.4679 28.7164 28.5456 28.6331 28.5945H30.6259C30.3794 28.419 30.1977 28.167 30.1089 27.8777ZM26.5449 26.3395L27.3461 24.3137L28.1252 26.3395H26.5449Z" fill="#0F0F0F"/>
</svg>
