<svg width="44" height="44" viewBox="0 0 44 44" fill="none" xmlns="http://www.w3.org/2000/svg">
<path d="M3.5805 21.3455C3.5805 24.1138 6.9355 26.2772 12.0157 27.4762L20.8908 17.3507H22L14.3183 32.1273C5.95833 30.6973 0 26.9683 0 22.4272C0 16.5898 9.856 11.8727 22 11.8727C34.144 11.8727 44 16.5898 44 22.4272C44 26.9683 38.0417 30.6973 29.6817 32.131L22 17.3507H23.1092L31.9825 27.4762C37.0645 26.2772 40.4177 24.1138 40.4177 21.3455C40.4177 16.4615 32.197 12.3988 21.9982 12.3988C11.8012 12.3988 3.5805 16.4615 3.5805 21.3455Z" fill="#0F0F0F"/>
</svg>
