<svg width="44" height="44" viewBox="0 0 44 44" fill="none" xmlns="http://www.w3.org/2000/svg">
<path d="M22.0001 12.0377H21.7526C18.9536 12.0704 16.2812 13.2094 14.3193 15.206C12.3574 17.2026 11.2653 19.8945 11.2817 22.6937C11.298 25.4928 12.4215 28.1718 14.4066 30.1453C16.3917 32.1189 19.0771 33.2266 21.8763 33.2266C24.6755 33.2266 27.361 32.1189 29.3461 30.1453C31.3312 28.1718 32.4546 25.4928 32.471 22.6937C32.4873 19.8945 31.3953 17.2026 29.4334 15.206C27.4714 13.2094 24.7991 12.0704 22.0001 12.0377ZM31.2181 22.5079H21.9048V31.823C19.437 31.8255 17.0693 30.8476 15.3224 29.1045C13.5755 27.3614 12.5925 24.9958 12.5896 22.528V22.5079H21.9048V13.2C23.1266 13.1986 24.3368 13.4378 25.4661 13.904C26.5955 14.3703 27.622 15.0544 28.487 15.9174C29.352 16.7803 30.0386 17.8052 30.5075 18.9335C30.9764 20.0618 31.2185 21.2713 31.2199 22.4932L31.2181 22.5079ZM13.6236 12.8829C13.7652 12.7517 13.8717 12.5872 13.9334 12.4044C13.9505 12.3303 13.9442 12.2528 13.9153 12.1825C13.8863 12.1122 13.8363 12.0526 13.7721 12.012C13.7116 11.9706 13.6401 11.9482 13.5668 11.9479C13.4929 11.9517 13.4206 11.9704 13.3541 12.0029C13.2189 12.0861 13.0982 12.1907 12.9966 12.3127C12.6079 12.7142 11.4218 13.9627 11.4218 13.9627L12.0543 14.5659L13.6236 12.8829ZM12.5841 11.1559C12.5741 11.1053 12.5541 11.0572 12.5252 11.0145C12.4962 10.9719 12.4591 10.9354 12.4158 10.9074C12.3725 10.8793 12.3241 10.8603 12.2733 10.8513C12.2226 10.8423 12.1705 10.8437 12.1203 10.8552C11.9961 10.8983 11.8837 10.9699 11.7921 11.0642C11.2255 11.6142 10.6917 12.1969 10.1934 12.8095L10.7984 13.387C10.7984 13.387 12.0213 12.1037 12.3513 11.737C12.4339 11.666 12.4982 11.5761 12.5387 11.4749C12.5793 11.3737 12.5948 11.2643 12.5841 11.1559ZM22.0001 5.09485C18.656 5.09449 15.387 6.08581 12.6064 7.94343C9.82575 9.80106 7.65845 12.4416 6.37858 15.531C5.0987 18.6204 4.76373 22.02 5.41603 25.2998C6.06833 28.5796 7.67861 31.5923 10.0432 33.9569C12.4078 36.3215 15.4205 37.9318 18.7003 38.5841C21.9801 39.2364 25.3797 38.9014 28.4691 37.6215C31.5586 36.3417 34.199 34.1744 36.0567 31.3937C37.9143 28.6131 38.9056 25.3441 38.9053 22C38.9055 19.7799 38.4684 17.5815 37.6189 15.5304C36.7694 13.4793 35.5242 11.6156 33.9544 10.0457C32.3845 8.47589 30.5208 7.23067 28.4697 6.38119C26.4186 5.53171 24.2202 5.09461 22.0001 5.09485ZM19.3894 6.46802C19.8893 6.4118 20.3874 6.37208 20.8836 6.34885L21.8699 8.80002L21.9048 8.98335L21.9396 8.80002L22.9168 6.34885C23.4154 6.37208 23.9135 6.4118 24.4109 6.46802L24.5759 10.9029C24.2207 10.8441 23.8636 10.797 23.5053 10.7617L23.4008 7.76602L23.4154 7.55885L23.3549 7.75685L22.3668 9.99902H21.4501L20.4473 7.75502L20.3831 7.55885L20.4033 7.76602L20.2969 10.7617C19.9303 10.7965 19.5819 10.8442 19.2281 10.9029L19.3894 6.46802ZM8.87159 13.0002C9.23826 12.5309 9.61837 12.0719 10.0119 11.6234C11.1486 10.3547 11.5684 9.98435 12.1111 9.92752C12.4 9.89338 12.6908 9.97513 12.9196 10.1549C13.0825 10.2815 13.2042 10.4536 13.2695 10.6493C13.3347 10.8451 13.3406 11.0558 13.2863 11.2549L13.2716 11.2934L13.3138 11.2787C13.5283 11.1821 13.7677 11.1557 13.9981 11.2031C14.2285 11.2505 14.4381 11.3693 14.5971 11.5427C15.1764 12.2155 14.8501 12.9159 14.2726 13.5264C13.4549 14.388 13.0351 14.8097 11.9993 15.9574L8.87159 13.0002ZM24.2166 33.2567C23.4926 33.4049 22.7556 33.4799 22.0166 33.4804C21.6449 33.4802 21.2735 33.4613 20.9038 33.4235C18.106 33.1377 15.5248 31.7888 13.6928 29.6551C11.8608 27.5214 10.9178 24.7659 11.0584 21.9571C11.1991 19.1483 12.4127 16.5008 14.4487 14.5608C16.4847 12.6208 19.1878 11.5365 22.0001 11.5317H22.2513C24.9533 11.5836 27.5412 12.631 29.5188 14.4729C31.4965 16.3149 32.7248 18.822 32.9683 21.5136C33.2117 24.2052 32.4533 26.8919 30.8384 29.0589C29.2234 31.2259 26.8655 32.7207 24.2166 33.2567ZM31.4674 15.5834C31.2151 15.2557 30.949 14.9389 30.6699 14.6337L31.8029 12.4447L31.9056 12.3035L31.7681 12.408L29.5681 13.5429C29.3206 13.3155 28.9338 12.9929 28.6386 12.7564L30.9834 9.09885C31.3134 9.35369 31.5701 9.56269 31.8414 9.79185L30.3069 12.111L30.1713 12.2705L30.3436 12.1532L32.3878 11.1284L33.1101 11.8507L32.0834 13.8949L31.9661 14.0672L32.1238 13.9297L34.4429 12.4007C34.6874 12.6806 34.9184 12.966 35.1359 13.2569L31.4674 15.5834ZM22.0001 3.66669C18.3741 3.66669 14.8295 4.74192 11.8146 6.75641C8.79973 8.7709 6.4499 11.6342 5.0623 14.9842C3.67469 18.3341 3.31163 22.0204 4.01903 25.5767C4.72642 29.133 6.4725 32.3997 9.03647 34.9636C11.6004 37.5276 14.8671 39.2737 18.4234 39.9811C21.9798 40.6885 25.666 40.3254 29.016 38.9378C32.3659 37.5502 35.2292 35.2004 37.2437 32.1855C39.2582 29.1706 40.3334 25.626 40.3334 22C40.3286 17.1392 38.3955 12.4789 34.9584 9.04176C31.5212 5.60464 26.8609 3.67154 22.0001 3.66669ZM22.0001 39.831C18.4735 39.831 15.026 38.7853 12.0937 36.826C9.16142 34.8667 6.87598 32.0818 5.52639 28.8236C4.17681 25.5655 3.82369 21.9802 4.51171 18.5214C5.19972 15.0625 6.89796 11.8853 9.39167 9.3916C11.8854 6.89789 15.0626 5.19965 18.5214 4.51164C21.9803 3.82363 25.5655 4.17674 28.8237 5.52632C32.0819 6.87591 34.8667 9.16135 36.826 12.0936C38.7853 15.0259 39.8311 18.4734 39.8311 22C39.8257 26.7275 37.9454 31.2597 34.6026 34.6025C31.2598 37.9454 26.7275 39.8257 22.0001 39.831Z" fill="#0F0F0F"/>
</svg>
