<svg width="44" height="44" viewBox="0 0 44 44" fill="none" xmlns="http://www.w3.org/2000/svg">
<g clip-path="url(#clip0_0_232)">
<path d="M38.8208 11.4583C39.7173 13.563 40.1518 15.9353 40.1518 18.711C40.1518 20.2107 40.0271 21.8093 39.7741 23.5987C39.2498 27.2837 37.8528 31.1337 36.5658 33.671C36.3568 34.0798 36.1899 34.3512 35.8544 34.6482C35.2678 35.1652 34.7508 35.2935 34.5601 35.1817C34.4061 35.09 34.3199 34.628 34.3511 33.9478C34.3768 33.3685 34.5143 32.9395 34.7251 32.2538C35.7127 29.0056 36.4483 25.6859 36.9251 22.3245C37.6309 17.4405 37.6034 13.0478 36.5566 10.3712C36.4511 10.0963 36.3159 9.83377 36.1533 9.58833C36.0396 9.42333 35.9589 9.339 35.9589 9.339C33.7938 7.17017 27.9473 6.083 22.0989 6.083C16.2506 6.083 10.4059 7.17017 8.24261 9.339C8.24261 9.339 8.16011 9.4215 8.04828 9.58833C7.88236 9.83146 7.74633 10.0937 7.64311 10.3693C6.59444 13.046 6.56878 17.4405 7.27461 22.3245C7.75128 25.6373 8.50661 29.1445 9.52411 32.4152C9.70011 32.978 9.81378 33.3612 9.84128 33.9552C9.87061 34.6317 9.78628 35.0918 9.63228 35.1835C9.44161 35.2935 8.91911 35.1652 8.33061 34.6427C7.90894 34.2668 7.69811 33.9002 7.43228 33.3575C6.18561 30.8183 4.87844 27.1297 4.37611 23.5987C4.13559 21.9803 4.00939 20.3471 3.99844 18.711C3.99844 15.9353 4.43478 13.5648 5.32944 11.462C6.00228 9.88533 7.13161 8.56533 8.59644 7.64317C12.1967 5.36685 16.3102 4.02931 20.5608 3.75283C21.0583 3.72244 21.5565 3.70654 22.0549 3.70517H22.0916C22.5952 3.70639 23.0951 3.72228 23.5913 3.75283C27.7749 4.00583 31.9128 5.35333 35.5538 7.64317C37.0053 8.55403 38.1449 9.88363 38.8208 11.4583ZM30.0886 38.0893C29.9273 38.1242 29.4268 38.2415 28.9299 38.3772C28.4844 38.5 28.0444 38.5972 27.8354 38.6393C25.9527 38.994 24.0405 39.1689 22.1246 39.1618H22.0733C20.0254 39.1618 18.0821 38.973 16.3643 38.6393C16.0195 38.569 15.6771 38.4877 15.3376 38.3955C14.9704 38.2974 14.6012 38.207 14.2303 38.1242C13.4639 37.95 12.7709 37.8253 12.7324 37.972C12.6866 38.1425 13.0294 38.5 13.4676 38.8373C13.5703 38.9143 13.8251 39.094 14.1221 39.2407C14.3971 39.3745 14.7088 39.4753 14.8298 39.5157C16.8428 40.1665 19.1308 40.436 22.0549 40.436H22.0953C24.9608 40.436 27.2176 40.1757 29.2031 39.5505C29.8833 39.336 30.2848 39.1637 30.7669 38.7805C31.1703 38.4615 31.4728 38.1333 31.4288 37.9738C31.3921 37.8363 30.7908 37.9353 30.0886 38.0893ZM25.4906 19.1822C25.2248 17.6972 24.9039 16.5568 24.5409 15.7905L24.5373 15.7832H24.4988L23.2484 15.7722H23.2301L23.1806 21.2685H25.7949L25.7931 21.2502C25.7931 21.241 25.6904 20.2932 25.4906 19.1822ZM36.0506 22.275C35.4603 26.3597 34.4373 30.7505 33.0073 34.5602C32.7689 35.2018 32.5526 35.4402 32.0356 35.8435C30.7025 36.7843 29.1824 37.4271 27.5788 37.7282C25.9343 38.049 24.0808 38.2268 22.1264 38.2268H22.0733C20.2447 38.2341 18.4196 38.0671 16.6228 37.7282C15.0178 37.4276 13.4965 36.7848 12.1623 35.8435C11.6453 35.4402 11.4308 35.2018 11.1961 34.5602C9.76244 30.7505 8.73944 26.3597 8.15094 22.275C7.46711 17.5505 7.50928 13.3888 8.48094 10.9047C8.60378 10.593 8.73394 10.3693 8.82928 10.2282C8.91361 10.109 8.97228 10.0448 8.97228 10.0448C10.9303 8.08317 16.4156 7.01617 22.0989 7.01617C27.7823 7.01617 33.2694 8.08317 35.2256 10.0467C35.2256 10.0467 35.2843 10.1072 35.3686 10.23C35.4639 10.3693 35.5959 10.5912 35.7169 10.9047C36.6904 13.3888 36.7326 17.5505 36.0506 22.275ZM16.3239 13.8692L11.4069 13.8417L11.8964 30.9595L13.9534 30.9815L13.9241 23.1898H15.7831V21.1787H13.9241V15.8767H16.3258V13.8673L16.3239 13.8692ZM19.7633 13.8325L17.2608 13.838L17.5926 30.9797H19.7138L19.7633 13.8325ZM26.0846 13.8582H21.0759L21.2739 30.9705H23.2759L23.2924 23.2302H25.8921L25.8958 23.243C26.1304 24.7042 26.1488 30.8898 26.1488 30.9522V30.9797H28.0976L28.1141 30.1015C28.2021 25.6648 28.3524 18.2417 26.0846 13.8582ZM34.0046 13.8343L27.8739 13.8582V15.8327H29.7036V15.851L29.6266 30.9797H31.7019L32.2061 15.8327H34.0046V13.8343ZM43.9541 22C43.9541 34.1312 34.1054 44 21.9981 44C9.89444 44 0.0457764 34.1312 0.0457764 22C0.0457764 9.86883 9.89444 0 21.9999 0C34.1073 0 43.9541 9.86883 43.9541 22ZM43.3491 21.9853C43.3399 10.1952 33.7663 0.605 21.9963 0.605C10.3436 0.605 0.843276 10.0155 0.656276 21.6535C0.91507 21.0578 1.35349 20.5579 1.91028 20.2235C3.11111 19.5122 3.43928 17.6843 3.54744 16.5917L3.56944 16.478C3.49794 17.2022 3.44111 17.9263 3.44111 18.711C3.44111 20.2363 3.56944 21.8607 3.82611 23.6757C4.58144 28.9923 7.14994 34.6885 8.66061 36.432L8.74494 36.5237L9.09694 36.894L9.10978 36.905C12.7948 39.9245 16.1809 40.9933 22.0549 40.9933H22.0953C27.9674 40.9933 31.3536 39.9245 35.0386 36.905L35.0551 36.894L35.3943 36.5328L35.4896 36.4302C37.0039 34.6812 39.5706 28.9923 40.3259 23.6757C40.5826 21.8607 40.7091 20.2363 40.7091 18.711C40.7091 17.8799 40.67 17.0799 40.5918 16.3112L40.6028 16.3222C40.7128 17.4167 41.2976 20.2473 42.4269 21.0632C42.8095 21.3394 43.1169 21.6468 43.3491 21.9853Z" fill="#0F0F0F"/>
</g>
<defs>
<clipPath id="clip0_0_232">
<rect width="44" height="44" fill="white"/>
</clipPath>
</defs>
</svg>
