<svg width="44" height="44" viewBox="0 0 44 44" fill="none" xmlns="http://www.w3.org/2000/svg">
<path d="M19.8917 1.55101C14.57 1.68959 9.51268 3.9006 5.79715 7.71303C2.08163 11.5255 0.00154165 16.638 6.59663e-07 21.9615V22.0348C-0.00135154 27.3577 2.07619 32.4706 5.78986 36.2839C9.50352 40.0973 14.5596 42.3094 19.8807 42.449H20.3995C22.9344 42.4555 25.4478 41.9841 27.808 41.0593C27.9457 41.0076 28.0643 40.9151 28.1482 40.7943C28.232 40.6734 28.2771 40.5299 28.2773 40.3828V30.1822C28.2759 30.1223 28.2606 30.0637 28.2325 30.0108C28.2044 29.9579 28.1644 29.9124 28.1157 29.8776C28.0669 29.8429 28.0107 29.8201 27.9516 29.8109C27.8925 29.8017 27.832 29.8064 27.775 29.8247C25.5713 30.7212 23.7142 31.5792 20.515 31.5792C17.9769 31.5792 15.5427 30.5709 13.748 28.7762C11.9533 26.9815 10.945 24.5473 10.945 22.0092C10.945 19.4711 11.9533 17.0369 13.748 15.2422C15.5427 13.4474 17.9769 12.4392 20.515 12.4392C23.7142 12.4392 25.5713 13.2953 27.775 14.19C27.8317 14.2082 27.8919 14.213 27.9507 14.204C28.0096 14.195 28.0656 14.1724 28.1143 14.1381C28.1629 14.1039 28.203 14.0587 28.2313 14.0063C28.2596 13.9539 28.2754 13.8957 28.2773 13.8362V3.62817C28.2774 3.48078 28.2326 3.33686 28.1487 3.21565C28.0648 3.09444 27.946 3.00171 27.808 2.94984C25.4507 2.02289 22.9398 1.54834 20.4068 1.55101H19.8917ZM30.6405 4.88767V39.116C30.6416 39.1958 30.6645 39.2738 30.7068 39.3415C30.7491 39.4091 30.8092 39.4639 30.8804 39.4998C30.9517 39.5358 31.0314 39.5514 31.111 39.5452C31.1906 39.5389 31.2669 39.511 31.3317 39.4643C37.5888 35.574 44 24.5043 44 22.011C44 19.5177 37.5888 8.45167 31.3317 4.55401C31.2679 4.508 31.1929 4.48008 31.1146 4.47319C31.0362 4.46631 30.9575 4.48073 30.8867 4.51491C30.8159 4.5491 30.7556 4.60179 30.7123 4.6674C30.6689 4.73302 30.6441 4.80912 30.6405 4.88767Z" fill="#0F0F0F"/>
</svg>
