<svg width="24" height="24" viewBox="0 0 24 24" fill="none" xmlns="http://www.w3.org/2000/svg">
<path d="M18.5 17H20C20.2652 17 20.5196 16.8946 20.7071 16.7071C20.8946 16.5196 21 16.2652 21 16V11.5L19.264 7.594C19.1854 7.41718 19.0573 7.26695 18.8951 7.16151C18.7328 7.05608 18.5435 6.99998 18.35 7H14M18.5 17C18.5 17.5304 18.2893 18.0391 17.9142 18.4142C17.5391 18.7893 17.0304 19 16.5 19C15.9696 19 15.4609 18.7893 15.0858 18.4142C14.7107 18.0391 14.5 17.5304 14.5 17M18.5 17C18.5 16.4696 18.2893 15.9609 17.9142 15.5858C17.5391 15.2107 17.0304 15 16.5 15C15.9696 15 15.4609 15.2107 15.0858 15.5858C14.7107 15.9609 14.5 16.4696 14.5 17M14 7V6C14 5.73478 13.8946 5.48043 13.7071 5.29289C13.5196 5.10536 13.2652 5 13 5H4C3.73478 5 3.48043 5.10536 3.29289 5.29289C3.10536 5.48043 3 5.73478 3 6V16C3 16.2652 3.10536 16.5196 3.29289 16.7071C3.48043 16.8946 3.73478 17 4 17H5.5M14 7V11.5V17M5.5 17C5.5 17.5304 5.71071 18.0391 6.08579 18.4142C6.46086 18.7893 6.96957 19 7.5 19C8.03043 19 8.53914 18.7893 8.91421 18.4142C9.28929 18.0391 9.5 17.5304 9.5 17M5.5 17C5.5 16.4696 5.71071 15.9609 6.08579 15.5858C6.46086 15.2107 6.96957 15 7.5 15C8.03043 15 8.53914 15.2107 8.91421 15.5858C9.28929 15.9609 9.5 16.4696 9.5 17M9.5 17H14M14 17H14.5" stroke="white" stroke-width="1.5" stroke-linecap="round" stroke-linejoin="round"/>
</svg>
