<svg width="24" height="24" viewBox="0 0 24 24" fill="none" xmlns="http://www.w3.org/2000/svg">
<path d="M22 22H2M3 22V11.347C3.00004 10.9234 3.0898 10.5046 3.26337 10.1181C3.43693 9.73171 3.69037 9.38642 4.007 9.105L10.007 3.772C10.5561 3.28391 11.2653 3.01431 12 3.01431C12.7347 3.01431 13.4439 3.28391 13.993 3.772L19.993 9.105C20.3096 9.38642 20.5631 9.73171 20.7366 10.1181C20.9102 10.5046 21 10.9234 21 11.347V22M9 15.5H15M9 18.5H15" stroke="white" stroke-width="1.5" stroke-linecap="round"/>
<path d="M18 22V16C18 14.114 18 13.172 17.414 12.586C16.828 12 15.886 12 14 12H10C8.114 12 7.172 12 6.586 12.586C6 13.172 6 14.114 6 16V22" stroke="white" stroke-width="1.5"/>
</svg>
