<svg width="24" height="24" viewBox="0 0 24 24" fill="none" xmlns="http://www.w3.org/2000/svg">
<path d="M12 12L20.073 7.375M12 12V21.25M12 12L7.963 9.688M20.073 7.375C19.7929 6.89408 19.3911 6.49538 18.908 6.219L16.25 4.696M20.073 7.375C20.348 7.847 20.5 8.39 20.5 8.955V15.045C20.4997 15.601 20.3522 16.147 20.0726 16.6275C19.793 17.108 19.3912 17.506 18.908 17.781L13.592 20.827C13.1073 21.1045 12.5585 21.2503 12 21.25M12 21.25C11.4415 21.2503 10.8927 21.1045 10.408 20.827L5.092 17.781C4.107 17.217 3.5 16.175 3.5 15.045V8.955C3.49985 8.39994 3.64685 7.85476 3.926 7.375M7.963 9.688L3.926 7.375M7.963 9.688L16.25 4.696M16.25 4.696L13.592 3.173C13.1074 2.8951 12.5586 2.74888 12 2.74888C11.4414 2.74888 10.8926 2.8951 10.408 3.173L5.092 6.219C4.60855 6.49524 4.2064 6.89395 3.926 7.375" stroke="white" stroke-width="1.5" stroke-linejoin="round"/>
</svg>
