<svg width="56" height="56" viewBox="0 0 56 56" fill="none" xmlns="http://www.w3.org/2000/svg">
<rect x="4" y="4" width="48" height="48" rx="24" fill="#2571FF"/>
<rect x="2" y="2" width="52" height="52" rx="26" stroke="#2571FF" stroke-opacity="0.4" stroke-width="4"/>
<path d="M28 18V21M35 29V23C35 22.4696 34.7893 21.9609 34.4142 21.5858C34.0391 21.2107 33.5304 21 33 21H23C22.4696 21 21.9609 21.2107 21.5858 21.5858C21.2107 21.9609 21 22.4696 21 23V29" stroke="white" stroke-width="1.5" stroke-linecap="round" stroke-linejoin="round"/>
<path d="M35.3796 35.9997C36.4553 34.1843 37.0154 32.1099 36.9996 29.9997L28.8116 26.3607C28.5559 26.2472 28.2793 26.1885 27.9996 26.1885C27.7199 26.1885 27.4432 26.2472 27.1876 26.3607L18.9996 29.9997C18.9533 32.8434 19.9533 35.605 21.8096 37.7597" stroke="white" stroke-width="1.5" stroke-linecap="round" stroke-linejoin="round"/>
<path d="M18 37C18.6 37.5 19.2 38 20.5 38C23 38 23 36 25.5 36C26.8 36 27.4 36.5 28 37C28.6 37.5 29.2 38 30.5 38C33 38 33 36 35.5 36C36.8 36 37.4 36.5 38 37" stroke="white" stroke-width="1.5" stroke-linecap="round" stroke-linejoin="round"/>
</svg>
