<svg width="48" height="48" viewBox="0 0 48 48" fill="none" xmlns="http://www.w3.org/2000/svg">
<rect x="1.5" y="1.5" width="45" height="45" rx="22.5" fill="white"/>
<rect x="1.5" y="1.5" width="45" height="45" rx="22.5" stroke="#CCCCCC" stroke-width="3"/>
<path d="M30.5 29H32C32.2652 29 32.5196 28.8946 32.7071 28.7071C32.8946 28.5196 33 28.2652 33 28V23.5L31.264 19.594C31.1854 19.4172 31.0573 19.2669 30.8951 19.1615C30.7328 19.0561 30.5435 19 30.35 19H26M30.5 29C30.5 29.5304 30.2893 30.0391 29.9142 30.4142C29.5391 30.7893 29.0304 31 28.5 31C27.9696 31 27.4609 30.7893 27.0858 30.4142C26.7107 30.0391 26.5 29.5304 26.5 29M30.5 29C30.5 28.4696 30.2893 27.9609 29.9142 27.5858C29.5391 27.2107 29.0304 27 28.5 27C27.9696 27 27.4609 27.2107 27.0858 27.5858C26.7107 27.9609 26.5 28.4696 26.5 29M26 19V18C26 17.7348 25.8946 17.4804 25.7071 17.2929C25.5196 17.1054 25.2652 17 25 17H16C15.7348 17 15.4804 17.1054 15.2929 17.2929C15.1054 17.4804 15 17.7348 15 18V28C15 28.2652 15.1054 28.5196 15.2929 28.7071C15.4804 28.8946 15.7348 29 16 29H17.5M26 19V23.5V29M17.5 29C17.5 29.5304 17.7107 30.0391 18.0858 30.4142C18.4609 30.7893 18.9696 31 19.5 31C20.0304 31 20.5391 30.7893 20.9142 30.4142C21.2893 30.0391 21.5 29.5304 21.5 29M17.5 29C17.5 28.4696 17.7107 27.9609 18.0858 27.5858C18.4609 27.2107 18.9696 27 19.5 27C20.0304 27 20.5391 27.2107 20.9142 27.5858C21.2893 27.9609 21.5 28.4696 21.5 29M21.5 29H26M26 29H26.5" stroke="#CCCCCC" stroke-width="1.5" stroke-linecap="round" stroke-linejoin="round"/>
</svg>
