<svg width="48" height="48" viewBox="0 0 48 48" fill="none" xmlns="http://www.w3.org/2000/svg">
<rect x="1.5" y="1.5" width="45" height="45" rx="22.5" fill="white"/>
<rect x="1.5" y="1.5" width="45" height="45" rx="22.5" stroke="#CCCCCC" stroke-width="3"/>
<path d="M17 24.7602C17 23.4022 17 22.7232 17.274 22.1262C17.549 21.5292 18.064 21.0882 19.095 20.2042L20.095 19.3472C21.96 17.7502 22.89 16.9502 24 16.9502C25.11 16.9502 26.041 17.7492 27.905 19.3462L28.905 20.2032C29.935 21.0872 30.451 21.5282 30.725 22.1252C31 22.7222 31 23.4012 31 24.7592V29.0002C31 30.8862 31 31.8282 30.414 32.4142C29.828 33.0002 28.886 33.0002 27 33.0002H21C19.114 33.0002 18.172 33.0002 17.586 32.4142C17 31.8282 17 30.8862 17 29.0002V24.7602Z" stroke="#CCCCCC" stroke-width="1.5"/>
<path d="M26.5 33V28C26.5 27.7348 26.3946 27.4804 26.2071 27.2929C26.0196 27.1054 25.7652 27 25.5 27H22.5C22.2348 27 21.9804 27.1054 21.7929 27.2929C21.6054 27.4804 21.5 27.7348 21.5 28V33" stroke="#CCCCCC" stroke-width="1.5" stroke-linecap="round" stroke-linejoin="round"/>
</svg>
