<svg width="48" height="48" viewBox="0 0 48 48" fill="none" xmlns="http://www.w3.org/2000/svg">
<rect width="48" height="48" rx="24" fill="#00B333"/>
<path d="M24 24.0001L32.073 19.3751M24 24.0001V33.2501M24 24.0001L19.963 21.6881M32.073 19.3751C31.7929 18.8942 31.3911 18.4955 30.908 18.2191L28.25 16.6961M32.073 19.3751C32.348 19.8471 32.5 20.3901 32.5 20.9551V27.0451C32.4997 27.6011 32.3522 28.1471 32.0726 28.6276C31.793 29.1082 31.3912 29.5062 30.908 29.7811L25.592 32.8271C25.1073 33.1046 24.5585 33.2505 24 33.2501M24 33.2501C23.4415 33.2505 22.8927 33.1046 22.408 32.8271L17.092 29.7811C16.107 29.2171 15.5 28.1751 15.5 27.0451V20.9551C15.4999 20.4001 15.6468 19.8549 15.926 19.3751M19.963 21.6881L15.926 19.3751M19.963 21.6881L28.25 16.6961M28.25 16.6961L25.592 15.1731C25.1074 14.8952 24.5586 14.749 24 14.749C23.4414 14.749 22.8926 14.8952 22.408 15.1731L17.092 18.2191C16.6086 18.4954 16.2064 18.8941 15.926 19.3751" stroke="white" stroke-width="1.5" stroke-linejoin="round"/>
</svg>
