<svg width="48" height="48" viewBox="0 0 48 48" fill="none" xmlns="http://www.w3.org/2000/svg">
<rect x="1.5" y="1.5" width="45" height="45" rx="22.5" fill="white"/>
<rect x="1.5" y="1.5" width="45" height="45" rx="22.5" stroke="#CCCCCC" stroke-width="3"/>
<path d="M34 34.0003H14M15 34.0003V23.3473C15 22.9237 15.0898 22.5049 15.2634 22.1185C15.4369 21.7321 15.6904 21.3868 16.007 21.1053L22.007 15.7723C22.5561 15.2843 23.2653 15.0146 24 15.0146C24.7347 15.0146 25.4439 15.2843 25.993 15.7723L31.993 21.1053C32.3096 21.3868 32.5631 21.7321 32.7366 22.1185C32.9102 22.5049 33 22.9237 33 23.3473V34.0003M21 27.5003H27M21 30.5003H27" stroke="#CCCCCC" stroke-width="1.5" stroke-linecap="round"/>
<path d="M30 34V28C30 26.114 30 25.172 29.414 24.586C28.828 24 27.886 24 26 24H22C20.114 24 19.172 24 18.586 24.586C18 25.172 18 26.114 18 28V34" stroke="#CCCCCC" stroke-width="1.5"/>
</svg>
